<?xml version="1.0" encoding="utf-8"?>
<!DOCTYPE svg PUBLIC "-//W3C//DTD SVG 1.0//EN" "http://www.w3.org/TR/2001/REC-SVG-20010904/DTD/svg10.dtd">
<svg version="1.0" xmlns="http://www.w3.org/2000/svg"  viewBox="375 0 256 256" width="256px" height="256px" preserveAspectRatio="xMidYMid meet">
 <g fill="#f06800">
  <path d="M582 850.15 c-31.35 -47.55 -40.40 -60.70 -43.55 -63.35 -3.55 -3 -3.95 -4 -3.95 -9.40 0 -7.75 1.40 -9.25 8.05 -8.80 4.55 0.35 5.85 1.30 7.25 5.25 0.55 1.65 2.35 5.15 4.05 7.70 1.65 2.60 4.55 7.25 6.45 10.40 1.90 3.10 6.45 10.30 10.05 16 3.65 5.65 7.55 11.75 8.65 13.55 1.10 1.80 4.60 7.15 7.75 11.95 6.50 9.75 6.50 9.85 4.75 16.15 -0.55 2 -1 4.35 -1 5.25 0 1.60 -0.05 1.65 -2.15 1.65 -2.15 0 -2.15 0 -6.35 -6.35z"/>
  <path d="M520 795.10 c-7.35 -4.70 -11.55 -14.25 -10.05 -23.10 1.60 -9.65 6.45 -15.30 16.20 -18.75 2.95 -1.05 3.90 -1.65 4.10 -2.45 0.10 -0.55 0.45 -2.30 0.70 -3.80 0.30 -1.50 1.20 -6.25 2 -10.50 0.80 -4.25 2.20 -11.45 3.05 -16 0.85 -4.55 2 -10.40 2.50 -13 0.55 -2.60 1.50 -7.80 2.20 -11.50 0.70 -3.70 2.25 -12.15 3.50 -18.75 2.50 -13.15 2.90 -15.60 6.30 -35 2.65 -15.10 4.50 -26.15 5.75 -34 0.65 -4.10 1.45 -8.85 1.70 -10.50 0.95 -5.75 1.20 -11 0.60 -12.90 -0.90 -2.70 -3.45 -4.60 -7.90 -6 -3.55 -1.10 -9.10 -2.15 -12.90 -2.50 -1.40 -0.10 -1.50 -0.25 -1.65 -2.15 -0.35 -4.75 3.75 -9.90 10.05 -12.70 2.75 -1.20 3.95 -2 4.10 -2.70 0.10 -0.60 0.65 -3.65 1.20 -6.80 0.60 -3.15 1.80 -9.90 2.75 -15 1.90 -10 3.15 -17.10 5.10 -28.75 0.70 -4.10 1.40 -7.60 1.50 -7.70 0.35 -0.35 12.80 -1.05 13.25 -0.75 0.60 0.35 0.55 4.15 -0.10 8.70 -0.25 2.05 -1.75 12.40 -3.25 23 -1.50 10.60 -3.10 21.90 -3.55 25.15 -0.85 5.90 -0.85 5.90 2.50 8.95 5.90 5.30 8.25 11.65 7.70 20.80 -0.25 3.95 -2.90 20.50 -5.30 32.85 -0.25 1.40 -0.95 5.30 -1.55 8.75 -2.40 13.95 -12.15 63.60 -20 102 -1.40 6.75 -2.85 14.05 -3.30 16.25 -0.40 2.20 -0.95 4.80 -1.20 5.75 -0.25 0.95 -0.60 2.95 -0.80 4.35 -0.15 1.45 -0.60 3 -0.90 3.45 -0.35 0.45 -2.50 1.30 -4.85 1.90 -8 2.10 -13.15 5.85 -14.45 10.60 -1.15 4.10 0.70 11.85 4.35 17.80 1.20 2.05 1.65 3.35 1.55 4.50 -0.15 1.65 -0.15 1.65 -4.40 1.80 -3.95 0.10 -4.40 0.05 -6.50 -1.30z"/>
  <path d="M500.85 737.65 c-9.15 -14 -9.80 -15 -18.05 -28 -10.70 -16.90 -15.55 -24.90 -16.55 -27.35 -0.90 -2.15 -1 -8.85 -0.15 -9.70 0.35 -0.35 1.30 -0.60 2.15 -0.60 2.40 0 6.95 4.90 15.25 16.50 8.40 11.65 25.30 37.90 31.45 48.85 2.40 4.30 2.60 4.85 2.45 7.50 -0.15 2.65 -0.30 2.95 -1.85 4 -1.20 0.80 -2.45 1.15 -4.10 1.15 -2.45 0 -2.45 0 -10.60 -12.35z"/>
  <path d="M521 722.65 c0.05 -1.35 0.25 -4.55 0.50 -7.15 3.15 -33.75 4.55 -50.95 5.50 -66.75 0.45 -7.25 1.25 -20.20 1.65 -26.25 0.10 -1.75 0.10 -1.75 6.30 -1.65 3.40 0.05 6.95 0.20 7.90 0.40 1.65 0.30 1.65 0.30 1.65 3.20 0 10.75 -12.45 75.95 -18.35 95.95 -1.35 4.60 -1.35 4.60 -3.25 4.60 -1.90 0 -1.90 0 -1.90 -2.35z"/>
 </g>
 <g fill="#1f9215">
  <path d="M636.55 883.50 c-3.70 -1.35 -11.10 -5.15 -18.80 -9.75 -12 -7.10 -17.25 -11.70 -17.25 -15.10 0 -4.30 1.85 -11.80 8.85 -35.90 5.85 -20.25 9.40 -33.95 12.10 -46.75 1.15 -5.35 2.30 -10.65 2.55 -11.75 0.25 -1.10 1.60 -7.40 3 -14 1.40 -6.60 2.85 -13.35 3.25 -15 0.40 -1.65 0.95 -4.10 1.20 -5.50 0.30 -1.35 0.95 -4.50 1.45 -7 0.55 -2.45 1.80 -8.20 2.80 -12.75 2.50 -11.80 4.20 -19.95 5.30 -26 0.55 -2.90 1.65 -8.60 2.45 -12.75 0.80 -4.10 2.50 -13.55 3.80 -21 3.20 -18.85 5.95 -33.10 8.35 -42.75 4.85 -19.85 6.60 -23.90 21.55 -48.75 4.65 -7.70 6.45 -11.80 6.70 -15.40 0.45 -5.65 -1.55 -11.10 -13 -35.10 -8.35 -17.50 -13.40 -31.10 -20.25 -54.25 -6.40 -21.65 -8.70 -33.75 -8.70 -46.50 0 -6.90 0.15 -8.90 1.05 -12.25 1.20 -4.60 3.50 -10.25 4.15 -10.25 0.20 0 0.40 -0.35 0.40 -0.75 0 -1.05 1.35 -3.60 2.50 -4.75 0.50 -0.50 1.20 -1.85 1.50 -2.95 0.30 -1.15 0.75 -2.05 1 -2.05 0.30 0 0.50 -0.20 0.50 -0.45 0 -0.30 0.55 -1.10 1.25 -1.85 0.70 -0.75 1.25 -1.75 1.25 -2.25 0 -0.55 0.20 -0.95 0.45 -0.95 0.50 0 5.55 -6.80 5.55 -7.50 0 -0.30 0.15 -0.50 0.40 -0.50 0.20 0 1.40 -0.95 2.65 -2.15 4 -3.60 9.65 -6.65 13.30 -7.15 3.15 -0.40 6.70 1.05 9.45 3.85 1.10 1.15 2.35 1.95 3.05 1.95 0.65 0 1.15 0.25 1.15 0.50 0 0.30 1.10 2.15 2.45 4.15 9.30 13.70 21.35 43.60 28.50 70.90 6.30 23.85 7.85 37.90 7.40 65.30 -0.30 16.40 -0.55 19.70 -2.80 36.90 -0.55 4.40 -1.25 13.65 -1.50 20.50 -0.40 9.45 -0.80 14.10 -1.75 19.05 -2.90 15.70 -10.75 41.30 -22.70 74.20 -3.25 9 -3.55 9.80 -7.15 19 -8.75 22.60 -9.80 25.30 -20.70 50.75 -3.45 8 -5.65 13.75 -18.15 47.50 -9.60 25.85 -20.10 52.30 -24.85 62.80 -2.70 5.90 -3.15 7.25 -2.60 7.90 3.25 4.20 9.45 10.85 11.25 12.05 1.20 0.80 4.05 2.05 6.25 2.80 7 2.25 29.25 14.25 34.90 18.80 1.75 1.40 1.95 1.80 1.95 3.75 0 2.15 0 2.15 -3.35 2.15 -4.75 0 -11 -1.40 -21.95 -4.90 -10.40 -3.30 -14.70 -4.45 -18.45 -4.85 -1.40 -0.15 -3.10 -0.40 -3.85 -0.50 -1.10 -0.15 -0.60 0.50 3.05 4.15 4.85 4.80 7.05 8.60 7.05 12.05 0 2.05 0 2.05 -2.60 2 -1.45 0 -3.85 -0.45 -5.35 -0.95z"/>
  <path d="M495.40 629.65 c-1.80 -0.20 -1.90 -0.30 -1.90 -1.90 0 -1.65 0 -1.65 2.95 -2 1.65 -0.20 3.25 -0.20 3.50 0 0.30 0.15 0.55 1.20 0.55 2.30 0 2.15 0.05 2.15 -5.10 1.60z"/>
  <path d="M470.75 583.55 c-3.70 -1.75 -17.60 -9.90 -27 -15.75 -17.75 -11.10 -39.55 -27.20 -48.10 -35.45 -5.20 -5 -9.50 -11.05 -11.50 -16.15 -1.15 -2.95 -1.35 -4.15 -1.35 -8.45 0.05 -9.40 2.75 -16.55 11 -29.30 11.30 -17.50 28.25 -41.05 40.75 -56.70 9.40 -11.70 10 -12.45 14.10 -16.85 3.45 -3.80 4.25 -4.40 5.65 -4.40 1.45 0 2 0.50 5.20 4.50 8.30 10.55 14.50 21.10 17.45 29.80 4.25 12.45 0.60 21.60 -15.30 38.40 -2.50 2.65 -4.75 4.80 -5 4.80 -0.25 0 -1.30 1 -2.30 2.25 -1.05 1.25 -2.20 2.25 -2.55 2.25 -0.35 0 -1.35 0.90 -2.25 2 -0.85 1.10 -1.90 2 -2.30 2 -0.40 0 -1 0.45 -1.35 1 -0.35 0.55 -0.90 1 -1.25 1 -0.35 0 -1.10 0.70 -1.75 1.50 -0.60 0.85 -1.35 1.50 -1.65 1.50 -0.75 0 -2.75 2.15 -2.75 2.90 0 0.35 -0.20 0.60 -0.45 0.60 -0.25 0 -0.55 0.45 -0.70 1 -0.20 0.80 0.60 1.80 3.45 4.40 5.35 4.85 25 25.60 30.30 31.95 5.45 6.55 8.55 10.95 20.30 28.45 5.90 8.75 9.10 14 9.10 14.85 0 2 -0.50 2.85 -1.70 2.85 -1.60 0 -13.05 3.25 -17.55 4.95 -4.95 1.90 -6.70 1.95 -10.50 0.10z"/>
  <path d="M556.25 405.20 c-16.65 -2.35 -29.85 -7.25 -43.05 -16.15 -16.50 -11.05 -28.55 -24.25 -40.10 -43.85 -1.10 -1.80 -1.85 -4.35 -2.80 -9 -2.15 -10.80 -2.50 -15.20 -2.50 -29.20 0 -13.30 0.60 -20.55 2.95 -35.50 1 -6.40 0.95 -11.75 -0.25 -21.25 -1.05 -8.20 -1.40 -27.45 -0.70 -35.85 0.35 -3.80 0.35 -3.80 5.15 -3.80 7.10 0.05 20.35 -2.40 29.55 -5.40 6 -2 17.20 -6.80 18 -7.70 0.15 -0.15 1 -0.60 1.90 -0.95 0.85 -0.40 1.60 -0.85 1.60 -1.10 0 -0.20 0.80 -0.65 1.75 -1 0.95 -0.35 1.75 -0.80 1.75 -1 0 -0.20 0.50 -0.55 1.10 -0.75 0.60 -0.15 1.55 -0.75 2.10 -1.25 0.55 -0.55 1.25 -0.95 1.60 -0.95 0.30 0 0.70 -0.35 0.90 -0.75 0.15 -0.40 0.60 -0.75 1.05 -0.75 0.40 0 0.75 -0.20 0.75 -0.50 0 -0.25 0.30 -0.50 0.70 -0.50 0.35 0 1.05 -0.55 1.50 -1.25 0.45 -0.70 1.15 -1.25 1.60 -1.25 0.40 0 0.85 -0.30 0.95 -0.65 0.15 -0.30 2.15 -2.30 4.50 -4.35 2.35 -2.05 4.25 -3.90 4.25 -4.10 0 -0.20 0.55 -0.90 1.25 -1.60 0.70 -0.70 1.25 -1.60 1.25 -2.05 0 -0.40 0.20 -0.75 0.50 -0.75 0.75 0 2.20 -3.35 3.20 -7.35 0.80 -3.25 0.85 -3.70 0.15 -4.40 -0.45 -0.40 -0.90 -0.75 -1 -0.75 -0.15 0 -2.25 -1.15 -4.70 -2.55 -12.45 -7.20 -30.05 -15.40 -59.75 -27.75 -32.25 -13.45 -35.50 -14.65 -69.90 -25.90 -11.40 -3.75 -21.70 -7.25 -22.85 -7.85 -2.05 -1 -2.15 -1.15 -2.15 -3.25 0 -2.40 1.10 -4.60 3.15 -6.20 0.75 -0.60 1.35 -1.35 1.35 -1.70 0 -1.80 4.15 -3.55 12.60 -5.30 14.10 -2.90 47.20 -7.90 69.90 -10.50 21.95 -2.50 33.95 -3.60 61.50 -5.55 20.65 -1.50 35.60 2.30 45.65 11.60 5.60 5.15 8.90 10.40 20.85 33.45 3.65 7 8.25 15.55 10.15 19 1.95 3.45 5.05 8.95 6.85 12.25 1.85 3.30 6.60 11.85 10.60 19 9.35 16.75 19.90 36.90 21.90 42 0.90 2.20 1.70 5.30 1.85 6.90 0.30 2.85 0.30 2.85 -1.80 2.85 -1.15 0 -2.55 -0.25 -3.15 -0.55 -0.55 -0.30 -1.05 -0.45 -1.15 -0.35 -0.50 0.50 17.20 15.15 29.70 24.70 26.70 20.25 32.05 24.15 47.60 34.70 14.25 9.70 18.75 13.05 26.80 20.05 6.55 5.70 11.75 9.25 18.40 12.60 8.65 4.35 11.70 5.45 44.65 16.05 8.75 2.80 18 6.30 20.60 7.75 0.45 0.20 0.80 1.30 0.90 2.45 0.15 2 0.15 2 -16.25 1.85 -9 -0.10 -18.75 -0.35 -21.65 -0.50 -5.25 -0.30 -5.25 -0.30 -1.50 2.15 2.05 1.35 5.80 3.55 8.25 4.85 4.50 2.40 8.25 5 10.90 7.50 1 1 1.35 1.75 1.35 3.25 0 1.95 -0.05 2 -1.65 2 -0.90 0 -3 -0.45 -4.65 -0.95 -1.60 -0.50 -5.10 -1.30 -7.70 -1.80 -9.90 -1.75 -41.65 -9.15 -43.10 -10.05 -0.60 -0.40 -0.30 0.80 1.65 5.90 0.90 2.40 1.45 4.80 1.45 6.40 0 2.50 0 2.50 -3.70 2.50 -6.15 0 -13.65 -3.20 -16.20 -6.90 -1.80 -2.60 -2.20 -4.15 -3.35 -13.35 -1.30 -9.90 -3 -14.80 -6.80 -19.40 -2.15 -2.60 -7.40 -5.50 -13.50 -7.50 -5.45 -1.80 -6.40 -2.05 -13.70 -4.10 -9.25 -2.50 -13.75 -4.45 -23 -10 -5.20 -3.10 -13.10 -7.50 -42.50 -23.35 -10.65 -5.75 -11.85 -6.50 -22.25 -13.45 -15.20 -10.15 -21.65 -15.80 -28.10 -24.70 -1.55 -2.20 -3.20 -4.45 -3.60 -5 -0.70 -0.95 -0.75 -0.95 -0.80 0.60 0 2.45 3.70 17.20 6.40 25.45 3.15 9.50 7.30 18.25 13.25 27.85 15.40 24.70 21.35 42.25 21.35 62.65 0 6.60 -1.40 18.45 -2.50 20.95 -0.20 0.55 -1.05 2.90 -1.85 5.25 -0.75 2.35 -1.50 4.35 -1.65 4.50 -0.15 0.15 -1.05 1.85 -2 3.75 -0.95 1.95 -1.90 3.60 -2.10 3.65 -0.25 0.10 -0.40 0.40 -0.40 0.65 0 0.55 -1.50 2.25 -6.90 7.95 -8.10 8.60 -20.30 15.25 -33.35 18.25 -2.55 0.60 -6.80 0.85 -15.50 1 -6.60 0.10 -12.65 0.05 -13.50 -0.05z m-7.50 -286.45 c3.45 -0.90 8.80 -4.30 10.90 -7 4.45 -5.60 5.35 -11.90 2.55 -17.75 -2.15 -4.50 -5 -7.50 -9.05 -9.60 -4.50 -2.35 -7.85 -3.05 -11.25 -2.35 -9.35 1.95 -16.10 9.40 -16.15 17.70 0 3 0.25 4.05 1.85 7.35 2.85 6.05 7.45 9.90 13.90 11.70 3.05 0.85 3.80 0.80 7.25 -0.05z"/>
  <path d="M215.90 321.70 c-1.25 -0.25 -1.40 -0.50 -1.40 -2.20 0 -1.70 0.35 -2.20 3.05 -4.70 1.65 -1.55 4.30 -3.45 5.85 -4.25 2.85 -1.45 2.85 -1.45 -11.40 -8.50 -9.25 -4.55 -15.20 -7.25 -16.95 -7.55 -1.45 -0.30 -6.65 -0.50 -11.50 -0.55 -11.60 0 -19.30 -0.60 -21.90 -1.70 -2 -0.80 -2.15 -1 -2.15 -2.70 0 -1.90 0 -1.90 19.90 -2.20 10.90 -0.20 28.55 -0.35 39.15 -0.35 20.95 0 22.45 -0.15 33.30 -3.20 11.95 -3.40 20.20 -6.65 29.40 -11.60 23.65 -12.70 40.35 -18.90 79.25 -29.40 25.95 -7 34.20 -9.55 65.75 -20.30 13.40 -4.55 17.35 -5.50 22.90 -5.50 4.20 0 4.50 0.05 5.85 1.40 1.95 2 2.50 4.40 2.50 11.35 0 9.75 -1.55 13.95 -7.25 19.50 -5.30 5.20 -13.65 9.25 -24.75 12.05 -8.55 2.20 -11.50 3.30 -21.95 8.45 -14.15 7 -18.55 8.55 -30.80 11 -17.40 3.45 -38.15 6.30 -60.75 8.25 -11.95 1.05 -18.75 1.95 -21.50 2.85 -4.05 1.30 -26 12.25 -36.05 18 -19.75 11.30 -20.70 11.70 -30.45 11.90 -3.70 0.10 -7.35 0.05 -8.10 -0.05z"/>
 </g>
 <g fill="#353830">
  <path d="M484.85 948.75 c-24 -3.05 -46.35 -12.30 -64.35 -26.65 -5.65 -4.50 -17.10 -15.80 -21.30 -21.10 -1.65 -2.05 -4.50 -5.90 -6.40 -8.50 -11.30 -15.75 -20.50 -38.05 -26.25 -63.65 -6 -26.70 -6.10 -59.80 -0.30 -89.35 2.40 -12.30 5.35 -23.60 6.25 -23.90 0.25 -0.10 0.60 -1 0.75 -2 0.45 -2.70 3.35 -11.10 3.85 -11.10 0.20 0 0.40 -0.45 0.40 -1 0 -1.15 1 -3.50 1.85 -4.40 0.35 -0.35 0.65 -1.20 0.65 -1.85 0 -0.65 0.30 -1.50 0.70 -1.85 0.95 -1 2.80 -4.70 2.80 -5.65 0 -1.10 1.50 -3.90 2.30 -4.40 0.40 -0.20 0.70 -0.95 0.70 -1.55 0 -0.65 0.30 -1.30 0.70 -1.45 0.35 -0.15 0.80 -0.95 0.95 -1.80 0.20 -0.85 0.80 -1.95 1.35 -2.40 0.55 -0.50 1 -1.25 1 -1.75 0 -0.50 0.45 -1.30 1 -1.75 0.55 -0.50 1 -1.25 1 -1.75 0 -0.50 0.25 -0.90 0.50 -0.90 0.30 0 0.50 -0.20 0.50 -0.45 0 -0.30 0.55 -1.10 1.25 -1.85 0.70 -0.75 1.25 -1.75 1.25 -2.25 0 -0.55 0.25 -0.95 0.50 -0.95 0.30 0 0.50 -0.35 0.50 -0.75 0 -0.40 0.25 -0.75 0.50 -0.75 0.30 0 0.50 -0.35 0.50 -0.75 0 -0.40 0.25 -0.75 0.50 -0.75 0.30 0 0.50 -0.35 0.50 -0.75 0 -0.40 0.25 -0.75 0.50 -0.75 0.30 0 0.50 -0.35 0.50 -0.75 0 -0.40 0.25 -0.75 0.50 -0.75 0.30 0 0.50 -0.35 0.50 -0.75 0 -0.40 0.25 -0.75 0.50 -0.75 0.30 0 0.65 -0.35 0.85 -0.80 0.15 -0.45 0.85 -1.35 1.45 -2 0.65 -0.60 1.20 -1.50 1.20 -1.85 0 -0.40 0.35 -0.85 0.75 -1.05 0.40 -0.15 0.75 -0.55 0.75 -0.90 0 -0.35 0.45 -0.95 1 -1.30 0.55 -0.35 1 -0.90 1 -1.25 0 -0.35 0.45 -0.90 1 -1.25 0.55 -0.35 1 -0.85 1 -1.15 0 -0.30 0.55 -1 1.25 -1.55 0.70 -0.55 1.25 -1.20 1.25 -1.50 0 -0.25 1.15 -1.50 2.50 -2.75 1.40 -1.25 2.50 -2.45 2.50 -2.75 0 -0.65 9.20 -9.90 9.85 -9.90 0.30 0 1.55 -1.10 2.85 -2.50 1.30 -1.40 2.55 -2.50 2.80 -2.50 0.30 0 0.75 -0.45 1.10 -1 0.35 -0.55 0.90 -1 1.25 -1 0.30 0 1 -0.55 1.55 -1.25 0.55 -0.70 1.25 -1.25 1.55 -1.25 0.35 0 0.70 -0.35 0.85 -0.75 0.20 -0.40 0.65 -0.75 1 -0.75 0.40 0 0.85 -0.35 1 -0.75 0.20 -0.40 0.65 -0.75 1 -0.75 0.40 0 0.85 -0.35 1 -0.75 0.20 -0.40 0.60 -0.75 1 -0.75 0.40 0 0.70 -0.20 0.70 -0.50 0 -0.25 0.30 -0.50 0.70 -0.50 0.35 0 1.20 -0.55 1.85 -1.20 0.65 -0.65 1.70 -1.30 2.35 -1.50 0.60 -0.20 1.10 -0.60 1.10 -0.85 0 -0.25 0.35 -0.45 0.75 -0.45 0.40 0 0.75 -0.20 0.75 -0.50 0 -0.25 0.30 -0.50 0.70 -0.50 0.40 0 1.05 -0.30 1.40 -0.70 0.40 -0.35 1.20 -0.80 1.80 -1 0.60 -0.20 1.40 -0.65 1.75 -0.95 1.40 -1.30 16.40 -8.40 21.25 -10.05 16.85 -5.80 33.15 -8.25 51.10 -7.60 10.75 0.35 15.95 0.95 16.55 1.90 0.60 0.90 0.55 4.75 -0.05 6.95 -0.60 2.15 -1.30 2.45 -6.25 2.45 -1.90 0 -5.30 0.20 -7.50 0.50 -2.20 0.25 -6.25 0.70 -9 1 -5.40 0.60 -6.25 0.75 -15.85 3 -33.15 7.80 -60.90 26.85 -87.80 60.30 -12.95 16.15 -23.10 35.20 -30.90 57.90 -3.70 10.75 -7.70 28.05 -9.25 40.05 -2.05 15.40 -2.20 33.80 -0.40 47.25 0.90 6.70 1.50 10.70 1.95 12.50 0.25 0.95 0.80 3.65 1.25 6 0.95 4.75 2.15 9.30 2.80 10.60 0.25 0.50 0.45 1.20 0.45 1.60 0 1.35 4.30 13.40 7.20 20.20 8.30 19.60 18.05 34.65 30.75 47.80 5.50 5.65 14.65 13.50 19.80 16.90 13.05 8.65 31.15 15.05 50.20 17.70 10.55 1.45 24.20 0.40 36.05 -2.75 10.25 -2.80 13.40 -3.75 15.60 -4.85 0.70 -0.40 1.65 -0.70 2.10 -0.70 0.45 0 1.20 -0.20 1.70 -0.45 3.35 -1.80 12.80 -6.05 13.40 -6.05 0.40 0 0.70 -0.20 0.70 -0.40 0 -0.25 0.80 -0.70 1.75 -1.10 0.95 -0.40 1.75 -0.85 1.75 -1.10 0 -0.20 0.35 -0.40 0.75 -0.40 0.40 0 0.75 -0.20 0.75 -0.40 0 -0.25 0.90 -0.80 2 -1.30 1.10 -0.50 2 -1.10 2 -1.35 0 -0.25 0.35 -0.45 0.75 -0.45 0.40 0 0.75 -0.20 0.75 -0.50 0 -0.25 0.35 -0.50 0.75 -0.50 0.40 0 1.15 -0.40 1.65 -0.85 0.50 -0.50 1.50 -1.20 2.25 -1.60 0.75 -0.40 1.35 -0.90 1.35 -1.15 0 -0.20 0.30 -0.40 0.65 -0.40 0.30 0 1.25 -0.65 2 -1.50 0.80 -0.80 1.75 -1.50 2.15 -1.50 0.40 0 0.95 -0.45 1.30 -1 0.35 -0.55 0.95 -1 1.30 -1 0.35 0 0.75 -0.35 0.90 -0.75 0.20 -0.40 0.60 -0.75 1 -0.75 0.35 0 0.90 -0.45 1.20 -1 0.30 -0.55 0.85 -1 1.25 -1 0.40 0 1 -0.45 1.35 -1 0.35 -0.55 0.90 -1 1.25 -1 0.30 0 1.35 -0.90 2.30 -2 0.95 -1.10 1.90 -2 2.15 -2 0.65 0 7.20 -6.65 7.20 -7.30 0 -0.30 0.90 -1.25 2 -2.15 1.10 -0.85 2 -1.90 2 -2.30 0 -0.35 0.60 -1.15 1.40 -1.75 1.55 -1.25 4.55 -1.20 7.75 0.15 1.75 0.75 1.85 0.90 1.85 3.15 0 2.65 -0.85 3.85 -9.25 12.65 -12.75 13.40 -27.75 24.50 -42.50 31.60 -14.30 6.85 -27.15 10.70 -45.25 13.50 -8.80 1.35 -31.85 1.80 -40.15 0.70z"/>
  <path d="M648.50 840.20 c-3.90 -2.20 -4.50 -3.05 -4.50 -6.05 0 -1.45 0.25 -2.65 0.50 -2.65 0.30 0 0.50 -0.55 0.50 -1.25 0 -0.70 0.25 -1.25 0.50 -1.25 0.30 0 0.50 -0.35 0.50 -0.80 0 -1.20 1.65 -5.70 2.10 -5.70 0.25 0 0.40 -0.50 0.40 -1.05 0 -1.35 4.55 -14.65 5.10 -14.85 0.20 -0.10 0.40 -0.55 0.40 -1 0 -1.30 9.10 -28.35 9.55 -28.50 0.25 -0.10 0.45 -0.60 0.45 -1.15 0 -1.25 1.85 -6.55 2.40 -6.90 0.65 -0.45 1.60 -3.50 1.60 -5 0 -1.80 0.85 -2.55 2.90 -2.55 1.70 0 1.70 0 1.45 4.90 -0.25 4.40 -1.40 15.15 -2.05 18.85 -0.15 0.85 -0.65 3.75 -1.05 6.50 -1.95 12.50 -5.05 24.65 -9.60 38 -4 11.55 -3.95 11.45 -6.65 11.65 -1.70 0.10 -2.80 -0.20 -4.50 -1.20z"/>
  <path d="M627.50 644.10 c-9.80 -10 -20.25 -18.45 -32.50 -26.30 -8.85 -5.65 -9.50 -6.25 -9.50 -8.50 0 -2.50 1 -7 1.70 -7.40 1.80 -1.20 4.65 0 11.80 5.10 12.30 8.70 21.85 17.90 30.65 29.40 5.40 7.15 5.85 7.85 5.85 9.90 0 2.20 0 2.20 -1.85 2.15 -1.70 -0.05 -2.35 -0.50 -6.15 -4.35z"/>
  <path d="M511.05 488.30 c-0.85 -1 -1.30 -4.65 -0.85 -6.95 0.30 -1.55 3.75 -5.85 4.75 -5.85 0.20 0 0.80 -0.45 1.40 -0.95 1.45 -1.35 4.20 -2.65 9.40 -4.45 18.70 -6.40 40.30 -10.10 58.95 -10.10 9.30 0 13.15 0.55 16.20 2.35 2.60 1.50 3.60 3.50 3.60 7.20 0 2.30 -0.20 2.75 -1.75 4.25 -1.90 1.80 -7.60 4.20 -12.90 5.40 -2.90 0.70 -16.55 3 -23.85 4.05 -1.25 0.15 -5.15 0.75 -8.75 1.35 -3.55 0.55 -7.30 1.10 -8.25 1.25 -0.95 0.10 -4.20 0.60 -7.25 1 -8.10 1.20 -13.05 1.60 -22 1.95 -7 0.25 -8.15 0.20 -8.70 -0.50z"/>
 </g>
 <g fill="#0b6710">
  <path d="M434.85 672.15 c-0.20 -0.15 -0.35 -1 -0.35 -1.90 0 -1.25 0.95 -2.60 5.45 -7.50 13.60 -15.05 28.75 -26.15 45.60 -33.40 6.75 -2.95 9.60 -3.85 11.80 -3.85 2.75 0 3.10 0.90 3.15 7.30 0 5.20 -0.10 5.75 -1.50 8.60 -1.15 2.25 -2.40 3.70 -4.90 5.75 -6.25 5.10 -22.65 14.55 -29.35 17 -1.90 0.70 -6.30 2.30 -9.75 3.60 -3.45 1.30 -7.70 2.90 -9.50 3.55 -3.15 1.15 -9.80 1.70 -10.65 0.85z"/>
  <path d="M434 496.50 c0 -0.60 0.35 -1 0.80 -1 0.45 0 0.90 -0.45 1.05 -1 0.15 -0.55 0.45 -1 0.70 -1 0.25 0 0.45 -0.30 0.45 -0.65 0 -0.75 2.05 -2.85 2.80 -2.85 0.30 0 1 -0.65 1.60 -1.50 0.65 -0.80 1.40 -1.50 1.75 -1.50 0.35 0 0.90 -0.45 1.25 -1 0.35 -0.55 0.95 -1 1.35 -1 0.40 0 1.45 -0.90 2.30 -2 0.90 -1.10 1.90 -2 2.25 -2 0.35 0 1.50 -1 2.55 -2.25 1 -1.25 2.05 -2.25 2.30 -2.25 0.25 0 2.50 -2.15 5 -4.80 11.55 -12.20 16.85 -21 16.85 -28 0 -7.70 -7.85 -23.05 -19 -37.15 -3.55 -4.55 -3.55 -4.55 -4.90 -3.30 -1.35 1.25 -1.35 1.25 -1.50 -0.25 -0.15 -1.15 0.25 -1.95 1.60 -3.35 1 -1.05 1.80 -2.05 1.80 -2.25 0 -0.65 10.05 -9.35 13.15 -11.35 2.30 -1.55 3.60 -2.05 5.10 -2.05 2.50 0 3.75 1.40 9.05 10.35 11.55 19.30 22.25 31.40 36.85 41.55 2.40 1.70 5.05 3.45 5.85 3.85 1.30 0.70 1.50 1.05 1.50 2.90 0 2.05 -0.20 2.25 -5.15 6.65 -19.70 17.65 -39.35 30.15 -60.35 38.35 -11.10 4.35 -23.35 8.85 -24.20 8.85 -0.45 0 -0.80 0.25 -0.80 0.50 0 0.30 -0.45 0.50 -1 0.50 -0.65 0 -1 -0.35 -1 -1z"/>
  <path d="M593.60 447.95 c-15.60 -0.90 -31.60 -4.75 -50.85 -12.30 -12.65 -4.95 -21.20 -10.95 -33.40 -23.30 -14.55 -14.75 -28.30 -38.05 -34.55 -58.60 -1 -3.30 -2.05 -6.70 -2.30 -7.55 -0.65 -2 -0.65 -5.20 0 -5.20 0.25 0 1.20 1.20 2.05 2.65 11.55 19.65 23.60 32.85 40.15 43.90 11.20 7.50 22.85 12.40 36.05 15.05 4.70 1 7.10 1.15 16.75 1.15 12.50 0 15.10 -0.35 23.50 -3.10 9.95 -3.30 19.45 -9.15 26.10 -16.10 4.45 -4.65 6.60 -7.15 6.65 -7.70 0 -0.20 0.35 -0.60 0.75 -0.85 0.40 -0.25 0.60 -0.50 0.40 -0.50 -0.20 0 0.40 -1.35 1.35 -2.95 0.95 -1.65 1.75 -3.20 1.75 -3.50 0 -0.30 0.20 -0.55 0.50 -0.55 0.25 0 0.45 -0.15 0.40 -0.35 -0.10 -0.35 1 -3.60 3 -9.15 0.40 -1.20 0.45 -1.50 1.55 -8 2.60 -15.65 0.10 -31.80 -7.90 -50.30 -2.25 -5.25 -7 -13.90 -12.40 -22.55 -8.50 -13.75 -13.45 -25.85 -17.70 -43.50 -2.20 -9.25 -2.50 -13.40 -1.05 -15.05 0.95 -1.05 0.95 -1.05 2.15 0.55 1.85 2.40 2.90 4.25 2.65 4.50 -0.40 0.40 4.70 13.35 6.80 17.10 8.25 14.95 24.95 28.65 50.70 41.55 9.85 4.95 15.90 8.45 16.85 9.75 2.65 3.75 6.50 16.95 9.40 32.45 3.55 18.70 5.15 25.70 6.60 28.75 0.80 1.70 1.45 3.35 1.45 3.65 0 0.35 0.25 0.60 0.50 0.60 0.30 0 0.50 0.80 0.50 1.75 0 2.15 -0.70 2.25 -1.60 0.25 -0.40 -0.95 -1 -1.50 -1.65 -1.50 -0.60 0 -1.85 -0.80 -2.80 -1.80 -2.15 -2.25 -5.25 -3.85 -7.30 -3.80 -1.95 0.10 -9.55 3.85 -10.90 5.45 -0.25 0.30 -1.40 1.30 -2.50 2.25 -1.15 0.90 -2.10 1.80 -2.15 2 -0.20 0.75 -5.25 7.40 -5.60 7.40 -0.15 0 -0.35 0.30 -0.35 0.65 0 0.85 -1.65 3.35 -2.25 3.35 -0.25 0 -0.30 0.25 -0.15 0.50 0.15 0.30 -0.05 0.65 -0.45 0.80 -0.45 0.15 -0.65 0.50 -0.50 0.75 0.15 0.25 0 0.45 -0.35 0.45 -0.35 0 -0.50 0.15 -0.30 0.30 0.40 0.45 -1.55 4.20 -2.20 4.20 -0.30 0 -0.35 0.25 -0.20 0.50 0.15 0.30 0.05 0.50 -0.25 0.50 -0.30 0 -0.40 0.25 -0.25 0.50 0.15 0.30 0.05 0.50 -0.25 0.50 -0.30 0 -0.40 0.25 -0.25 0.50 0.15 0.30 0.05 0.50 -0.25 0.50 -0.30 0 -0.45 0.20 -0.25 0.45 0.15 0.25 -0.10 0.85 -0.55 1.25 -0.40 0.45 -0.65 0.80 -0.45 0.80 0.20 0 -0.05 0.35 -0.45 0.80 -0.70 0.70 -1.05 1.75 -0.85 2.85 0 0.20 -0.20 0.35 -0.50 0.35 -0.25 0 -0.35 0.25 -0.20 0.50 0.15 0.30 0.10 0.50 -0.15 0.50 -0.25 0 -0.95 2.10 -1.60 4.65 -0.85 3.40 -1.10 6 -1.10 10.10 0 4.15 -0.20 6.25 -0.95 8.50 -1.40 4.20 -3.20 12.40 -4.45 20 -1.50 9.15 -2.05 9.75 -9.25 10.95 -10.90 1.85 -23.10 2.50 -35.15 1.75z"/>
  <path d="M469.85 208.65 c-0.45 -10.40 -2.40 -17.75 -6.25 -23.55 -3.90 -5.85 -9.15 -11.50 -23.35 -25 -17.25 -16.35 -21.65 -20.80 -27 -27.30 -7.95 -9.55 -12.75 -17.55 -12.75 -21.30 0 -2 0 -2 1.95 -2 1.10 0 4.05 0.80 6.65 1.80 2.55 0.95 10.30 3.45 17.15 5.45 18.25 5.40 35.55 11.35 52.75 18.10 29.25 11.50 50.50 18.25 68.25 21.65 3.05 0.55 6.20 1 7 0.95 1.70 -0.10 3.15 0.40 4.25 1.50 0.85 0.80 1.05 3.95 0.35 4.90 -0.25 0.35 -0.35 1 -0.15 1.40 0.15 0.40 0.05 0.75 -0.20 0.75 -0.25 0 -0.35 0.35 -0.20 0.75 0.20 0.40 0.05 0.75 -0.30 0.75 -0.30 0 -0.45 0.20 -0.25 0.50 0.35 0.60 -2.10 5.50 -2.80 5.50 -0.25 0 -0.40 0.20 -0.25 0.45 0.15 0.25 -0.35 1.15 -1.20 2 -0.80 0.90 -1.45 1.75 -1.50 1.95 0 0.20 -1.85 2 -4.15 4 -2.25 2.05 -4.30 4 -4.50 4.40 -0.20 0.40 -0.70 0.70 -1.10 0.70 -0.40 0 -1.10 0.55 -1.55 1.25 -0.45 0.70 -1.15 1.25 -1.50 1.25 -0.40 0 -0.70 0.25 -0.70 0.50 0 0.30 -0.35 0.50 -0.75 0.50 -0.45 0 -0.90 0.35 -1.05 0.75 -0.20 0.40 -0.60 0.75 -0.90 0.75 -0.35 0 -1.05 0.40 -1.60 0.95 -0.55 0.50 -1.50 1.10 -2.10 1.25 -0.60 0.20 -1.10 0.55 -1.10 0.75 0 0.20 -0.80 0.65 -1.75 1 -0.95 0.35 -1.75 0.80 -1.75 1 0 0.25 -0.75 0.70 -1.60 1.10 -0.90 0.35 -1.75 0.80 -1.90 0.95 -0.80 0.90 -12 5.70 -18 7.70 -8.95 2.90 -22.15 5.35 -29.55 5.50 -2.80 0 -4.80 0.25 -4.80 0.55 0 1.60 -0.25 2.25 -0.85 2.25 -0.50 0 -0.70 -1.50 -0.95 -6.35z"/>
  <path d="M394.50 94.30 c-1.55 -0.55 -1.75 -0.85 -1.90 -2.65 -0.15 -1.70 0.10 -2.30 1.70 -4.10 2.80 -3.10 6.15 -5.05 8.60 -5.05 2.45 0 2.55 0.25 0.85 1.60 -0.70 0.55 -1.15 1.15 -1 1.40 0.15 0.20 -0.50 1 -1.35 1.80 -1.75 1.45 -3.40 3.80 -3.40 4.90 0 0.35 0.55 0.95 1.25 1.30 0.70 0.35 1.25 0.85 1.25 1.10 0 0.60 -4 0.40 -6 -0.30z"/>
 </g>
 <g fill="#010101">
  <path d="M491.25 966.25 c-19.35 -2.10 -34.10 -6.35 -50.50 -14.60 -23.50 -11.80 -43.75 -30.30 -58.90 -53.75 -4.80 -7.50 -5.85 -9.30 -9.85 -17.35 -4.90 -9.95 -7.30 -15.80 -10.80 -26.55 -2.95 -9.05 -2.90 -8.90 -4.60 -16 -4.55 -18.80 -6.60 -35.80 -6.60 -54.65 0 -14.80 0.90 -24.15 4 -41.60 0.70 -3.85 2.25 -11.10 2.95 -13.75 0.25 -0.95 0.95 -3.45 1.50 -5.50 2.60 -9.85 7.45 -23.90 10.80 -31.25 7.90 -17.30 12.75 -25.75 25.25 -43.50 12.35 -17.55 21.55 -27.55 35.55 -38.60 8.10 -6.35 19.40 -13.80 25.10 -16.45 1 -0.50 1.85 -1.15 1.85 -1.50 0 -0.55 -5.85 -4.50 -16.50 -11.20 -20.90 -13.10 -44.90 -30.50 -53.10 -38.40 -8.35 -8.10 -13.45 -16.90 -15.95 -27.60 -0.90 -3.85 -0.75 -13.95 0.30 -18.20 3.05 -12.85 7.05 -20.05 26.20 -47.30 19.25 -27.45 33.10 -44.70 55.70 -69.45 7.35 -8.05 10.35 -12.25 10.35 -14.40 0 -0.50 -0.60 -2.50 -1.30 -4.40 -4.35 -11.85 -6.40 -20.40 -8.30 -34.50 -0.90 -6.80 -0.75 -28.20 0.30 -35.25 1.40 -9.95 1.70 -11.65 2.80 -16.75 2 -9.45 2.10 -9.10 -1.90 -7.05 -3 1.50 -5.95 2.50 -13.10 4.40 -17.50 4.55 -20.70 5.70 -32.70 11.60 -7.25 3.55 -11.05 5.25 -17.55 7.85 -4.80 1.90 -14.45 4.35 -23.50 5.90 -8.30 1.40 -27.20 3.65 -43 5.05 -25.25 2.25 -28.90 2.80 -37.50 5.60 -3.20 1.10 -10.10 4.30 -13.75 6.40 -1.25 0.75 -4.05 2.30 -6.25 3.50 -10.30 5.55 -15.10 8.20 -16.35 9.10 -0.80 0.55 -1.40 0.75 -1.40 0.45 0 -0.95 -1.10 -0.60 -1.35 0.40 -0.15 0.60 -2.10 1.80 -5.55 3.45 -6.20 2.90 -8.70 3.80 -13.70 4.85 -4.60 0.95 -7.60 0.95 -12.55 0 -5.35 -1 -5.30 -1 -8.40 1.30 -3.35 2.50 -5.50 3.45 -7.95 3.45 -6.25 0 -11.50 -4.40 -10.85 -9.15 0.15 -1.15 0.45 -2.60 0.65 -3.20 0.40 -1.40 -0.35 -1.50 -3.65 -0.30 -1.60 0.55 -4.15 0.85 -7.70 0.85 -5.05 0.05 -5.40 0 -7.75 -1.45 -4.25 -2.65 -5.85 -7.15 -3.70 -10.65 1.45 -2.40 3.15 -3.75 8.25 -6.70 4.50 -2.55 6.25 -3.80 6.25 -4.35 0 -0.20 -1.70 -0.25 -3.80 -0.15 -4.95 0.25 -17.75 -0.75 -20.90 -1.70 -4.25 -1.20 -8 -3.35 -10.80 -6.20 -2.35 -2.35 -2.90 -3.30 -3.85 -6.55 -1.50 -5 -1.50 -7.95 0.05 -10.35 3.25 -5.10 4.90 -5.60 17.05 -5.25 13.30 0.40 81.40 -0.75 84.20 -1.40 13.25 -3.10 25.35 -8.15 35.80 -14.95 5.25 -3.40 12.75 -7.40 18.75 -9.95 5.60 -2.35 15.35 -6.20 18.25 -7.15 9.60 -3.15 21.10 -6.60 29.50 -8.90 3.30 -0.85 6.55 -1.80 7.25 -2 0.70 -0.20 3.15 -0.90 5.50 -1.50 13.35 -3.50 27.35 -7.75 43.50 -13.20 27.15 -9.20 31.25 -10.80 38.90 -15.30 5.30 -3.15 7.10 -4.90 7.10 -6.85 0 -2.40 -7.35 -10.55 -30.55 -33.75 -8.40 -8.40 -17.10 -17.45 -19.30 -20.10 -9.25 -11.05 -13.70 -19.50 -21.75 -40.95 -0.70 -1.90 -0.20 -9.05 0.85 -12.10 0.45 -1.35 1.85 -4 3.10 -5.90 6.10 -9.20 18.40 -14.20 45.30 -18.35 8.20 -1.25 15.10 -2.25 20.35 -2.95 8.20 -1.15 11.40 -1.60 14.50 -2.05 5.60 -0.80 11.70 -1.60 23 -3 13.60 -1.65 19.65 -2.35 26.75 -2.95 8.10 -0.75 16.80 -1.55 22.75 -2.10 17.15 -1.55 24.90 -1.55 35 0.10 21.15 3.40 33.10 11.80 44.80 31.45 1.40 2.35 6 10.90 10.20 19 4.20 8.10 8.40 16.10 9.25 17.75 4.90 9.05 23.45 43 30 54.75 6.75 12.10 20.50 40.95 21.50 45.05 0.25 0.95 2.90 3.20 10.15 8.55 17.40 12.80 35.15 24.95 46.85 32.05 7.10 4.35 15.10 10.20 22.10 16.25 17.65 15.10 18.15 15.35 54.40 27.35 34.75 11.45 40.45 14.20 43.55 20.75 1.95 4.15 2.20 5.05 2.20 8.45 0 2.85 -0.20 3.70 -1.45 5.65 -3.35 5.30 -9.45 6.85 -18.55 4.70 -1.80 -0.45 -3.40 -0.80 -3.60 -0.80 -0.55 0 -0.50 1.90 0.05 2.20 0.20 0.15 0.70 1.60 1.05 3.25 1.20 5.80 -1.55 11.15 -7.10 13.55 -4.40 1.95 -13.05 1.95 -22.15 0 -1.10 -0.25 -3.35 -0.70 -5 -1 -5.20 -1 -11.60 -2.40 -16 -3.55 -1.95 -0.50 -3.70 -0.70 -3.95 -0.45 -0.20 0.25 -0.90 1.65 -1.50 3.15 -3.05 7.45 -7.45 9.50 -16.55 7.65 -4.50 -0.90 -5.70 -1.30 -10.40 -3.50 -8.45 -3.85 -14.90 -9.40 -17.95 -15.45 -2.35 -4.75 -2.70 -6.10 -4.15 -18.10 -0.70 -5.80 -0.75 -6.05 -2.35 -7.40 -2.85 -2.40 -5.85 -3.60 -14.40 -5.85 -2.35 -0.60 -4.80 -1.30 -5.50 -1.50 -0.70 -0.20 -2.95 -0.90 -5 -1.55 -2.05 -0.60 -3.95 -1.30 -4.20 -1.55 -0.30 -0.20 -0.80 -0.40 -1.15 -0.40 -0.65 0 -6.45 -2.50 -8.75 -3.75 -1.65 -0.95 -2.05 -0.40 -1.35 1.80 0.85 2.85 2.30 10.55 4 20.60 0.25 1.55 0.70 4.20 0.95 5.85 0.30 1.65 0.70 4.30 0.95 5.90 1 6.40 1.80 8.30 8.40 19.85 5.15 8.95 9.05 16.75 12.70 25.40 1.65 3.80 2.95 7.05 2.95 7.20 0 0.15 0.80 2.45 1.80 5.10 1.80 4.75 2.35 6.40 5.25 16.30 1.20 4.20 3.55 13.30 5.45 21.50 1.05 4.35 3.05 15.15 3.95 21.25 2.40 15.95 2.80 21.25 2.75 39.50 0 18.75 -0.20 21.50 -3.20 39.50 -0.30 1.80 -0.75 4.60 -1.05 6.25 -0.25 1.65 -0.70 8.40 -0.95 15 -0.25 6.60 -0.55 12.55 -0.70 13.25 -0.15 0.70 -0.50 3.05 -0.80 5.25 -0.30 2.20 -0.75 4.90 -1 6 -0.25 1.10 -0.70 3.35 -1.05 5 -0.90 4.35 -3.70 15.45 -4.95 19.50 -0.60 1.95 -1.25 4.20 -1.50 5 -0.90 3.45 -5.35 16.25 -9.45 27.15 -0.85 2.25 -2.20 5.85 -3 8 -2 5.35 -5.55 14.65 -6.05 15.85 -0.25 0.55 -1.80 4.60 -3.50 9 -3.20 8.40 -4.80 12.40 -5.55 13.85 -0.25 0.50 -0.45 1.10 -0.45 1.40 0 0.30 -0.45 1.60 -1.05 2.90 -0.60 1.30 -1.25 2.80 -1.45 3.35 -0.20 0.55 -0.75 1.80 -1.15 2.75 -2.85 6.60 -9.30 23.20 -9.10 23.50 0.15 0.20 0.60 3.05 1.10 6.30 1.05 7.50 1.20 37.85 0.25 46.45 -1.85 16.35 -2.80 22.65 -4.95 33.75 -2.95 15.45 -9 35.20 -12.75 41.95 -1.10 1.90 -1.30 1.60 3.10 4.15 11.25 6.45 19.15 13.25 20.90 18.05 2.20 5.85 1.15 11.70 -2.70 15.50 -3.95 3.90 -8.20 5.10 -16.50 4.70 -5.75 -0.30 -7.70 -0.60 -13.70 -2.25 -3.75 -1.05 -5 -0.90 -5 0.65 0 1.30 -2.65 5.30 -4.45 6.70 -2.40 1.90 -4 2.50 -7.90 3.10 -4.25 0.60 -4.95 1.05 -8.40 5.05 -4.55 5.35 -18.95 19.70 -24 23.95 -11.30 9.50 -21.85 16.55 -33.55 22.35 -8.75 4.35 -10.05 4.95 -17.45 7.70 -9.45 3.55 -20.45 6.35 -31.40 8.15 -10.95 1.75 -27.30 2.20 -38.60 1z m32.25 -19.70 c27 -4.20 47.70 -12.40 66.65 -26.45 12.05 -8.95 30.75 -27.45 30.25 -29.95 -0.10 -0.50 -1.15 -1.25 -2.60 -1.80 -2.45 -0.90 -2.50 -0.90 -3.75 0.10 -0.70 0.50 -1.25 1.20 -1.20 1.50 0.10 0.25 -0.80 1.30 -2 2.30 -1.15 1 -2.05 1.95 -2 2.15 0.15 0.45 -6.95 7.60 -7.55 7.60 -0.25 0 -1.20 0.90 -2.15 2 -0.95 1.10 -2 2 -2.30 2 -0.35 0 -0.90 0.45 -1.25 1 -0.35 0.55 -0.95 1 -1.35 1 -0.40 0 -0.95 0.45 -1.25 1 -0.30 0.55 -0.85 1 -1.20 1 -0.40 0 -0.80 0.35 -1 0.75 -0.15 0.40 -0.55 0.75 -0.90 0.75 -0.35 0 -0.95 0.45 -1.30 1 -0.35 0.55 -0.90 1 -1.30 1 -0.40 0 -1.35 0.70 -2.15 1.50 -0.75 0.85 -1.70 1.50 -2 1.50 -0.35 0 -0.65 0.20 -0.65 0.40 0 0.25 -0.60 0.75 -1.35 1.15 -0.75 0.40 -1.75 1.10 -2.25 1.60 -0.50 0.45 -1.25 0.85 -1.65 0.85 -0.40 0 -0.75 0.25 -0.75 0.50 0 0.30 -0.35 0.50 -0.75 0.50 -0.40 0 -0.75 0.20 -0.75 0.45 0 0.25 -0.90 0.85 -2 1.35 -1.10 0.50 -2 1.05 -2 1.30 0 0.20 -0.35 0.40 -0.75 0.40 -0.40 0 -0.75 0.20 -0.75 0.40 0 0.25 -0.80 0.70 -1.75 1.10 -0.95 0.40 -1.75 0.85 -1.75 1.10 0 0.20 -0.30 0.40 -0.70 0.40 -0.60 0 -10.05 4.25 -13.40 6.05 -0.50 0.25 -1.25 0.45 -1.70 0.45 -0.45 0 -1.40 0.30 -2.10 0.70 -2.20 1.10 -5.35 2.05 -15.60 4.85 -12.10 3.20 -27.65 4.30 -39.10 2.75 -19 -2.65 -37.10 -9.05 -50.15 -17.70 -5.15 -3.40 -14.30 -11.25 -19.80 -16.90 -12.70 -13.15 -22.45 -28.20 -30.75 -47.80 -3.05 -7.15 -7.20 -18.90 -7.20 -20.35 0 -0.50 -0.15 -1.05 -0.35 -1.25 -0.50 -0.50 -3.50 -12.30 -3.85 -15.30 -0.05 -0.40 -0.25 -1.30 -0.45 -2 -0.70 -2.75 -1.65 -9.80 -2.45 -18.75 -1 -10.90 -0.55 -38.65 0.70 -40.50 0.15 -0.30 0.35 -2 0.45 -3.75 0.05 -1.80 0.30 -3.50 0.50 -3.75 0.20 -0.30 0.50 -1.65 0.65 -3 0.10 -1.40 0.35 -2.85 0.50 -3.25 0.15 -0.40 0.35 -1.65 0.45 -2.75 0.10 -1.10 0.40 -2.40 0.60 -2.90 0.20 -0.50 0.40 -1.50 0.45 -2.25 0.05 -0.75 0.20 -1.55 0.35 -1.85 0.30 -0.50 1.55 -5.35 1.70 -6.75 0.05 -0.40 0.25 -1.10 0.35 -1.50 0.15 -0.40 1.55 -4.70 3.10 -9.50 3.60 -11.10 5.90 -16.85 10.60 -26.50 7.80 -16 16.25 -28.45 29.75 -43.75 21.95 -24.85 47.65 -41.65 74.75 -48.75 12.40 -3.30 20.15 -4.50 33.70 -5.25 8.30 -0.50 8.40 -0.50 9 -2.65 0.95 -3.55 0.45 -4.65 -2.30 -4.90 -1.10 -0.10 -4.55 -0.45 -7.70 -0.75 -8.90 -0.85 -29.95 0.20 -30.40 1.55 -0.10 0.25 -0.45 0.35 -0.80 0.20 -1.55 -0.60 -14.15 2.40 -23.40 5.60 -4.85 1.65 -19.85 8.75 -21.25 10.05 -0.35 0.30 -1.15 0.75 -1.75 0.95 -0.60 0.20 -1.40 0.65 -1.80 1 -0.35 0.40 -1 0.70 -1.40 0.70 -0.40 0 -0.70 0.25 -0.70 0.50 0 0.30 -0.35 0.50 -0.75 0.50 -0.40 0 -0.75 0.20 -0.75 0.45 0 0.25 -0.50 0.65 -1.10 0.85 -0.65 0.20 -1.70 0.85 -2.35 1.50 -0.65 0.65 -1.50 1.20 -1.85 1.20 -0.40 0 -0.70 0.25 -0.70 0.50 0 0.30 -0.30 0.50 -0.70 0.50 -0.40 0 -0.80 0.35 -1 0.75 -0.15 0.40 -0.60 0.75 -1 0.75 -0.35 0 -0.80 0.35 -1 0.75 -0.15 0.40 -0.60 0.75 -1 0.75 -0.35 0 -0.80 0.35 -1 0.75 -0.15 0.40 -0.50 0.75 -0.85 0.75 -0.30 0 -1 0.55 -1.55 1.25 -0.55 0.70 -1.25 1.25 -1.55 1.25 -0.35 0 -0.90 0.45 -1.25 1 -0.35 0.55 -0.80 1 -1.10 1 -0.25 0 -1.50 1.15 -2.80 2.50 -1.30 1.35 -2.55 2.50 -2.85 2.50 -0.60 0 -9.65 9.05 -9.50 9.55 0.05 0.20 -1.05 1.45 -2.50 2.75 -1.40 1.35 -2.55 2.60 -2.50 2.80 0.10 0.20 -0.55 0.90 -1.35 1.55 -0.80 0.70 -1.35 1.35 -1.20 1.50 0.15 0.10 -0.30 0.70 -1 1.25 -0.70 0.50 -1.15 1.10 -1 1.25 0.15 0.10 -0.35 0.70 -1.10 1.30 -0.75 0.55 -1.15 1.05 -0.90 1.05 0.25 0.05 -0.05 0.45 -0.65 0.95 -0.60 0.50 -1 1.05 -0.85 1.15 0.10 0.15 -0.45 0.95 -1.25 1.85 -0.80 0.85 -1.30 1.55 -1.15 1.55 0.20 0.05 -0.15 0.45 -0.75 0.95 -0.60 0.50 -0.95 1.05 -0.80 1.25 0.15 0.15 -0.10 0.40 -0.55 0.60 -0.45 0.15 -0.65 0.50 -0.50 0.75 0.15 0.25 -0.10 0.60 -0.50 0.75 -0.45 0.15 -0.65 0.50 -0.50 0.75 0.15 0.25 -0.10 0.60 -0.50 0.75 -0.45 0.15 -0.65 0.50 -0.50 0.75 0.15 0.25 -0.10 0.60 -0.50 0.75 -0.45 0.15 -0.65 0.50 -0.50 0.75 0.15 0.25 -0.05 0.60 -0.45 0.75 -0.35 0.10 -0.70 0.50 -0.70 0.85 0 0.85 -1.65 3.35 -2.25 3.35 -0.25 0 -0.30 0.25 -0.15 0.50 0.15 0.30 -0.05 0.65 -0.45 0.80 -0.45 0.15 -0.65 0.50 -0.55 0.75 0.15 0.20 -0.15 0.85 -0.70 1.40 -0.55 0.55 -0.85 1.10 -0.65 1.25 0.15 0.15 0 0.30 -0.35 0.30 -0.35 0 -0.50 0.20 -0.30 0.50 0.15 0.25 -0.15 0.90 -0.70 1.45 -0.55 0.55 -0.85 1.10 -0.65 1.25 0.15 0.15 0 0.30 -0.35 0.30 -0.35 0 -0.45 0.25 -0.30 0.50 0.15 0.30 0.05 0.50 -0.25 0.50 -0.30 0 -0.45 0.20 -0.25 0.50 0.15 0.25 -0.15 0.90 -0.65 1.40 -0.50 0.50 -0.85 1.15 -0.70 1.50 0.10 0.30 -0.30 1 -0.85 1.55 -0.50 0.50 -0.85 1.10 -0.65 1.25 0.15 0.15 0 0.30 -0.35 0.30 -0.35 0 -0.45 0.25 -0.30 0.50 0.15 0.30 0.05 0.50 -0.25 0.50 -0.30 0 -0.40 0.25 -0.25 0.50 0.15 0.30 0.05 0.50 -0.25 0.50 -0.30 0 -0.45 0.20 -0.25 0.50 0.30 0.50 -2.10 5.65 -2.80 5.90 -0.25 0.10 -0.35 0.40 -0.15 0.65 0.15 0.25 0 0.45 -0.30 0.45 -0.30 0 -0.45 0.20 -0.25 0.45 0.30 0.55 -0.75 3.05 -1.30 3.05 -0.25 0 -0.30 0.35 -0.15 0.75 0.20 0.40 0.05 0.75 -0.30 0.75 -0.30 0 -0.40 0.25 -0.25 0.50 0.15 0.30 0.10 0.50 -0.20 0.50 -0.30 0 -0.40 0.30 -0.25 0.70 0.15 0.35 -0.05 1 -0.45 1.35 -0.35 0.40 -0.60 1 -0.45 1.35 0.10 0.30 -0.05 0.60 -0.40 0.60 -0.30 0 -0.40 0.25 -0.25 0.50 0.15 0.30 0.10 0.50 -0.20 0.50 -0.30 0 -0.40 0.35 -0.25 0.75 0.20 0.40 0.05 0.75 -0.25 0.75 -0.30 0 -0.40 0.35 -0.25 0.75 0.20 0.40 0.05 0.75 -0.25 0.75 -0.30 0 -0.40 0.35 -0.25 0.75 0.20 0.40 0.05 0.75 -0.25 0.75 -0.30 0 -0.40 0.35 -0.25 0.75 0.20 0.40 0.05 0.75 -0.30 0.75 -0.30 0 -0.45 0.20 -0.30 0.40 0.35 0.55 -0.75 4.10 -1.25 4.10 -0.25 0 -0.30 0.35 -0.15 0.75 0.20 0.40 0.05 0.75 -0.25 0.75 -0.30 0 -0.40 0.35 -0.25 0.75 0.20 0.40 0.05 0.75 -0.30 0.75 -0.35 0 -0.50 0.35 -0.30 0.75 0.15 0.40 0.05 0.75 -0.25 0.75 -0.30 0 -0.40 0.45 -0.20 1 0.20 0.60 0.10 1 -0.25 1 -0.35 0 -0.45 0.40 -0.25 1 0.20 0.55 0.10 1 -0.20 1 -0.30 0 -0.40 0.35 -0.25 0.75 0.20 0.40 0.05 0.75 -0.30 0.75 -0.35 0 -0.45 0.40 -0.25 1 0.20 0.60 0.10 1 -0.25 1 -0.30 0 -0.40 0.50 -0.20 1.25 0.20 0.80 0.10 1.25 -0.25 1.25 -0.35 0 -0.45 0.45 -0.25 1.25 0.20 0.75 0.10 1.25 -0.25 1.25 -0.30 0 -0.40 0.35 -0.25 0.75 0.20 0.40 0.05 0.75 -0.30 0.75 -0.40 0 -0.50 0.45 -0.30 1.25 0.20 0.75 0.10 1.25 -0.25 1.25 -0.35 0 -0.40 0.55 -0.20 1.50 0.20 1 0.15 1.50 -0.25 1.50 -0.40 0 -0.50 0.45 -0.30 1.25 0.20 0.75 0.10 1.25 -0.20 1.25 -0.35 0 -0.45 0.40 -0.25 0.95 0.15 0.55 0.05 1.10 -0.25 1.30 -0.35 0.20 -0.45 0.95 -0.25 1.80 0.20 0.95 0.15 1.45 -0.25 1.45 -0.40 0 -0.50 0.60 -0.25 2 0.25 1.40 0.15 2 -0.25 2 -0.45 0 -0.55 0.55 -0.35 1.75 0.20 1.10 0.10 1.75 -0.25 1.75 -0.35 0 -0.45 0.75 -0.25 2 0.15 1.05 0.05 2 -0.25 2.10 -0.25 0.10 -0.50 2.75 -0.55 6.05 -0.05 3.20 -0.25 5.85 -0.45 5.85 -0.25 0 -0.40 4.90 -0.40 10.90 0 24.55 3.55 45.30 11.80 69.40 3.40 10 8.70 21.65 13.55 29.95 2.40 4.10 7.55 11.35 11.85 16.75 4.20 5.30 15.65 16.60 21.30 21.10 18 14.35 40.35 23.60 64.35 26.65 8 1.05 28.30 0.65 37.15 -0.70z m-1.50 -26.10 c8.45 -0.95 19.10 -3.75 27.65 -7.20 3 -1.20 3.40 -1.50 3.10 -2.45 -0.15 -0.55 -0.85 -3.05 -1.50 -5.55 -0.65 -2.45 -1.80 -6.75 -2.50 -9.50 -1.35 -5 -1.80 -6.70 -2.70 -10.50 -0.80 -3.45 -4.90 -19.25 -6.30 -24.50 -0.75 -2.75 -1.55 -5.80 -1.75 -6.75 -0.20 -0.95 -1.55 -6.25 -3 -11.75 -3.95 -15.20 -5.30 -20.40 -7.05 -27.35 -1.05 -4.05 -1.90 -6.40 -2.30 -6.40 -0.35 0 -0.65 0.15 -0.65 0.40 0 0.20 -0.60 3.05 -1.25 6.35 -0.70 3.30 -1.50 7.15 -1.75 8.50 -0.20 1.40 -1.25 6.55 -2.20 11.50 -1 4.95 -2 10.20 -2.30 11.65 -0.25 1.40 -0.75 3.80 -1 5.25 -0.30 1.40 -1.90 9.45 -3.50 17.85 -1.65 8.40 -3.60 18.20 -4.35 21.75 -0.70 3.60 -1.45 7.40 -1.65 8.50 -0.35 1.80 -1 5.10 -2.55 12.75 -0.30 1.50 -0.75 3.55 -1 4.50 -0.70 2.85 -0.55 3.40 0.95 3.65 1.95 0.35 12.05 -0.10 17.60 -0.70z m-31.25 -3.55 c0.20 -1.20 0.50 -2.95 0.75 -3.90 0.25 -0.95 0.65 -3 0.95 -4.50 0.30 -1.50 1 -5.10 1.55 -8 0.55 -2.90 1.25 -6.15 1.50 -7.25 0.25 -1.10 0.90 -4.45 1.45 -7.50 1.25 -6.70 4.85 -25.15 5.50 -28.25 0.25 -1.25 0.75 -3.70 1.05 -5.50 0.30 -1.80 0.75 -4.15 1 -5.25 0.25 -1.10 0.70 -3.25 1 -4.75 0.30 -1.50 1.35 -6.80 2.35 -11.75 0.95 -4.95 1.95 -10 2.15 -11.25 0.20 -1.25 0.95 -5.05 1.70 -8.45 0.90 -4.30 1.15 -6.40 0.80 -6.75 -1.20 -1.20 -0.75 -1.75 -25.80 32.40 -3 4.10 -8.15 11.10 -11.45 15.60 -3.30 4.50 -7.55 10.35 -9.50 13 -1.90 2.65 -6.55 8.95 -10.25 14 -10.90 14.75 -11.50 15.60 -11.50 16.10 0 0.75 7.40 6.55 13.50 10.65 7.55 5.05 15.95 8.85 27 12.20 5.55 1.70 5.85 1.65 6.25 -0.85z m80 -14.70 c5.75 -3.80 10.80 -7.45 14.75 -10.60 8.95 -7.15 15.35 -13.70 12.15 -12.35 -0.50 0.20 -1.90 0.45 -3.15 0.60 -2.70 0.30 -5.05 -0.60 -7.60 -2.95 -1.70 -1.50 -16.80 -23.80 -23.65 -34.90 -13.05 -21.15 -23.75 -37.55 -24.30 -37.20 -0.25 0.15 -0.35 0.45 -0.20 0.70 0.15 0.25 1.75 6.15 3.50 13.10 1.75 6.95 4.55 18.05 6.25 24.65 1.70 6.60 4.40 17.30 6.05 23.75 1.65 6.45 3.90 15.15 4.95 19.25 2.20 8.40 2.05 7.85 3.55 14 0.60 2.50 1.20 4.65 1.30 4.90 0.45 0.75 1.60 0.25 6.40 -2.95z m-129 -26.50 c3.85 -5.40 9.50 -13.20 12.60 -17.35 8.30 -11.30 8.25 -11.25 16.90 -23.10 9.05 -12.40 13.40 -18.30 21.90 -29.85 4.70 -6.45 5.85 -8.35 5.85 -9.65 0 -0.95 -0.20 -1.80 -0.45 -2 -0.30 -0.15 -1.95 0.50 -3.75 1.45 -1.80 0.95 -3.30 1.55 -3.30 1.30 0 -0.90 -1.10 -0.50 -1.35 0.50 -0.15 0.55 -0.45 0.85 -0.70 0.70 -0.25 -0.15 -0.45 0 -0.45 0.30 0 0.30 -0.20 0.45 -0.45 0.30 -0.25 -0.20 -0.55 -0.10 -0.65 0.15 -0.05 0.20 -15.45 8.05 -34.15 17.45 -46 23 -47.25 23.65 -47.25 24.15 0 2.45 9.90 21.90 15.10 29.65 3.45 5.15 11.95 15.80 12.55 15.80 0.35 -0.05 3.75 -4.45 7.60 -9.80z m201.25 6.75 c0 -0.25 -0.60 -1.75 -1.30 -3.25 -1.50 -3.20 -5.45 -7.60 -10 -11.25 -1.75 -1.40 -3.20 -2.75 -3.20 -3 0 -1 10.75 -0.15 16.90 1.35 1.85 0.45 7.60 2.15 12.80 3.80 13.45 4.30 22.30 5.95 22.30 4.25 0 -0.40 -0.90 -1.40 -1.95 -2.25 -5.65 -4.55 -27.90 -16.55 -34.90 -18.80 -2.20 -0.75 -5.05 -2 -6.30 -2.85 -2.50 -1.65 -12.35 -12.80 -12.35 -13.95 0 -0.45 1.55 -4.15 3.45 -8.30 4.90 -10.75 15.25 -36.85 25.15 -63.45 12.50 -33.75 14.70 -39.50 18.15 -47.50 10.90 -25.45 11.95 -28.15 20.70 -50.75 3.60 -9.20 3.90 -10 7.15 -19 11.95 -32.90 19.80 -58.50 22.70 -74.20 0.95 -4.95 1.35 -9.60 1.75 -19.05 0.25 -6.85 0.95 -16.10 1.50 -20.50 2.20 -16.85 2.50 -20.45 2.80 -35.35 0.50 -25.60 -1.20 -40.30 -7.40 -63.85 -7 -26.70 -19.20 -57.25 -28.05 -70.25 -1.10 -1.60 -3 -4.90 -4.15 -7.25 -2.25 -4.50 -3.10 -8.05 -7.30 -30.05 -2.90 -15.50 -6.75 -28.70 -9.40 -32.45 -0.95 -1.30 -7 -4.80 -16.85 -9.75 -26.80 -13.45 -43.70 -27.65 -51.65 -43.40 -2.35 -4.70 -7.60 -18.90 -7.20 -19.55 0.35 -0.55 2.45 1.75 6.60 7.05 5.75 7.40 12.30 12.95 26.85 22.60 9.75 6.50 11 7.20 21.45 12.90 29.40 15.85 37.30 20.25 42.50 23.35 9.25 5.55 13.75 7.50 23 10 7.30 2.05 8.25 2.30 13.70 4.10 6.10 2 11.35 4.90 13.50 7.50 3.80 4.60 5.50 9.50 6.80 19.40 1.15 9.20 1.55 10.75 3.35 13.35 2.25 3.25 10.05 6.90 14.70 6.90 2.75 0 2.80 -0.50 0.75 -5.90 -1.85 -4.70 -2.75 -8.35 -2.40 -9.30 0.25 -0.60 0.60 -0.60 2.40 0.05 5.35 1.80 33.70 8.50 44.20 10.35 3.90 0.70 8.60 1.90 10.65 2.65 1.05 0.45 0.65 -0.75 -0.75 -2.10 -2.65 -2.50 -6.40 -5.10 -10.90 -7.50 -6.70 -3.55 -14 -8.40 -14 -9.25 0 -0.85 0 -0.85 28.15 -0.50 16.15 0.25 18.20 0.10 16.05 -1.10 -2.55 -1.40 -11.85 -4.90 -20.55 -7.70 -32.95 -10.60 -36 -11.70 -44.65 -16.05 -6.65 -3.35 -11.85 -6.90 -18.40 -12.60 -8.05 -7 -12.55 -10.35 -26.80 -20.05 -15.55 -10.55 -20.90 -14.45 -47.60 -34.70 -13.35 -10.20 -30.40 -24.45 -32.80 -27.45 -0.50 -0.65 -1.30 -1.30 -1.75 -1.50 -1.20 -0.45 -1.15 -1.60 0.10 -1.70 0.65 -0.05 0.90 0.10 0.70 0.45 -0.20 0.30 -0.15 0.40 0.20 0.20 0.30 -0.15 2.50 0.50 4.85 1.45 2.40 0.95 4.60 1.75 4.85 1.75 2.30 0 -7 -19.25 -23.50 -48.75 -4 -7.15 -8.75 -15.70 -10.60 -19 -1.80 -3.30 -4.90 -8.80 -6.85 -12.25 -1.90 -3.45 -6.50 -12 -10.15 -19 -11.95 -23.05 -15.25 -28.30 -20.85 -33.45 -6.05 -5.55 -14.25 -9.35 -23.40 -10.80 -8 -1.20 -12.25 -1.30 -23 -0.50 -5.75 0.45 -13.40 1 -17 1.25 -12.80 0.90 -39.70 3.70 -55 5.75 -46.35 6.20 -65.35 10 -71.45 14.20 -2.45 1.70 -5.40 5 -5.15 5.70 0.20 0.60 3.55 1.80 29.60 10.35 23.95 7.90 30.60 10.20 40.50 14 10.45 4 48.15 19.75 57.50 24 14.20 6.40 32.20 15.70 35.75 18.45 2.40 1.90 1.60 1.85 -11.75 -0.55 -16.55 -2.95 -38.70 -9.95 -68.25 -21.55 -17.15 -6.75 -34.70 -12.75 -52.25 -17.95 -6.60 -1.90 -14.45 -4.40 -17.40 -5.50 -2.95 -1.15 -5.55 -1.90 -5.70 -1.70 -0.50 0.50 2.30 6 5.35 10.60 6.40 9.60 12.55 16.20 34.25 36.80 22.25 21.15 25.65 25.70 28.60 38.40 0.75 3.30 0.85 6.15 0.75 23.75 -0.15 17.70 -0.05 20.90 0.90 28 1.20 9.40 1.30 17.70 0.25 24.25 -2.20 14.05 -2.95 22.35 -2.95 33.75 -0.05 6.70 0.25 13.70 0.60 16.75 0.65 5.05 3.15 18.15 4.10 21.25 3.30 10.95 4.50 14.45 6.85 20 10.75 25.70 28.80 48.60 48.90 62.10 7.80 5.20 23.05 11.15 41 15.90 11.65 3.10 29.15 4.65 41.75 3.70 7.10 -0.55 15.50 -1.65 18.60 -2.50 1.65 -0.40 4.40 -2.90 4.40 -3.95 0 -0.25 0.55 -3.70 1.25 -7.65 1.85 -10.90 4.30 -20.50 5.50 -21.80 0.75 -0.80 0.65 -1.35 2 8.45 1.20 8.75 3.90 20.30 7.80 33.40 6.90 23.30 11.95 36.85 20.30 54.35 11.95 25 13.40 29.05 13.05 36.50 -0.20 5.20 -1.35 8.05 -6.75 17 -14.95 24.85 -16.70 28.90 -21.55 48.75 -2.40 9.65 -5.15 23.90 -8.35 42.75 -1.30 7.45 -3 16.90 -3.80 21 -0.80 4.15 -1.90 9.85 -2.45 12.75 -1.10 6.05 -2.80 14.20 -5.30 26 -1 4.55 -2.25 10.30 -2.80 12.75 -0.50 2.50 -1.15 5.65 -1.45 7 -0.25 1.40 -0.80 3.85 -1.20 5.50 -0.40 1.65 -1.85 8.40 -3.25 15 -1.40 6.60 -2.75 12.90 -3 14 -0.25 1.10 -1.40 6.40 -2.55 11.75 -2.70 12.80 -6.25 26.50 -12.10 46.75 -6.10 20.95 -8.85 31.70 -8.85 34.40 0 0.75 4.20 4.90 7.45 7.30 4.05 3 14.60 9.30 21.10 12.65 7.30 3.70 12.45 5.30 12.45 3.85z m-54 -29.10 c0 -0.90 0.45 -3.30 1.05 -5.35 0.70 -2.60 0.85 -4 0.55 -4.75 -0.25 -0.55 -3.35 -5.40 -6.85 -10.75 -12.70 -19.40 -17.60 -27.05 -25.85 -40.50 -2.60 -4.25 -5.70 -9.20 -6.85 -11 -1.15 -1.75 -2.45 -4.40 -2.85 -5.85 -0.90 -3.15 -2.40 -4.45 -5.50 -4.95 -4.65 -0.70 -6.70 1.50 -6.70 7.20 0 3.75 0.70 5.15 3.95 7.90 3.15 2.65 12.20 15.80 43.55 63.35 2.30 3.50 4.50 6.35 4.85 6.35 0.40 0 0.65 -0.60 0.65 -1.65z m65.55 -15.35 c1.25 -2.65 6.15 -17.05 7.90 -23.25 1.50 -5.45 3.95 -16.10 4.35 -19 0.10 -0.80 0.40 -2.75 0.65 -4.20 0.30 -1.50 0.40 -2.85 0.30 -3 -0.15 -0.10 -0.05 -0.45 0.25 -0.75 0.25 -0.35 0.50 -1.70 0.55 -3.05 0.05 -1.40 0.25 -2.85 0.45 -3.25 0.20 -0.40 0.55 -2.65 0.70 -5 0.20 -2.35 0.55 -5.25 0.80 -6.50 0.25 -1.25 0.45 -3.35 0.50 -4.70 0 -2.15 -0.10 -2.35 -0.75 -1.80 -0.45 0.35 -0.70 0.95 -0.55 1.30 0.30 0.80 -1.25 5.70 -1.80 5.70 -0.25 0 -0.30 0.25 -0.15 0.50 0.15 0.30 0.10 0.50 -0.20 0.50 -0.30 0 -0.40 0.35 -0.25 0.75 0.20 0.40 0.05 0.75 -0.30 0.75 -0.30 0 -0.40 0.25 -0.25 0.50 0.15 0.30 0.05 0.50 -0.25 0.50 -0.35 0 -0.45 0.40 -0.25 1 0.20 0.55 0.10 1 -0.20 1 -0.30 0 -0.40 0.30 -0.25 0.70 0.15 0.35 -0.05 1 -0.45 1.35 -0.35 0.40 -0.60 1 -0.45 1.35 0.10 0.30 -0.05 0.60 -0.35 0.60 -0.30 0 -0.40 0.35 -0.25 0.75 0.20 0.40 0.05 0.75 -0.25 0.75 -0.30 0 -0.40 0.35 -0.25 0.75 0.20 0.40 0.05 0.75 -0.25 0.75 -0.30 0 -0.40 0.35 -0.25 0.75 0.20 0.40 0.05 0.75 -0.25 0.75 -0.30 0 -0.40 0.35 -0.25 0.75 0.20 0.40 0.05 0.75 -0.25 0.75 -0.30 0 -0.40 0.35 -0.25 0.75 0.20 0.40 0.05 0.75 -0.25 0.75 -0.30 0 -0.40 0.35 -0.25 0.75 0.20 0.40 0.05 0.75 -0.25 0.75 -0.30 0 -0.40 0.35 -0.25 0.75 0.20 0.40 0.05 0.75 -0.25 0.75 -0.30 0 -0.40 0.35 -0.25 0.75 0.20 0.40 0.05 0.75 -0.30 0.75 -0.35 0 -0.50 0.35 -0.30 0.75 0.15 0.40 0.05 0.75 -0.20 0.75 -0.25 0 -0.35 0.35 -0.20 0.75 0.20 0.40 0.05 0.75 -0.25 0.75 -0.30 0 -0.40 0.35 -0.25 0.75 0.20 0.40 0.05 0.75 -0.25 0.75 -0.30 0 -0.40 0.35 -0.25 0.75 0.20 0.40 0.05 0.75 -0.25 0.75 -0.30 0 -0.40 0.35 -0.25 0.75 0.20 0.40 0.05 0.75 -0.25 0.75 -0.30 0 -0.40 0.35 -0.25 0.75 0.20 0.40 0.05 0.75 -0.25 0.75 -0.30 0 -0.40 0.35 -0.25 0.75 0.20 0.40 0.05 0.75 -0.25 0.75 -0.30 0 -0.40 0.35 -0.25 0.75 0.20 0.40 0.05 0.75 -0.25 0.75 -0.30 0 -0.40 0.35 -0.25 0.75 0.20 0.40 0.05 0.75 -0.25 0.75 -0.30 0 -0.40 0.30 -0.25 0.70 0.15 0.35 -0.05 1 -0.45 1.35 -0.35 0.40 -0.60 1 -0.45 1.35 0.10 0.30 -0.05 0.60 -0.35 0.60 -0.30 0 -0.40 0.35 -0.25 0.75 0.20 0.40 0.05 0.75 -0.30 0.75 -0.35 0 -0.50 0.35 -0.30 0.75 0.15 0.40 0.05 0.75 -0.20 0.75 -0.25 0 -0.35 0.35 -0.20 0.75 0.20 0.40 0.05 0.75 -0.25 0.75 -0.30 0 -0.40 0.35 -0.25 0.75 0.20 0.40 0.05 0.75 -0.25 0.75 -0.30 0 -0.40 0.35 -0.25 0.75 0.20 0.40 0.05 0.75 -0.25 0.75 -0.30 0 -0.40 0.35 -0.25 0.75 0.20 0.40 0.05 0.75 -0.30 0.75 -0.30 0 -0.40 0.25 -0.25 0.50 0.15 0.30 0.05 0.50 -0.25 0.50 -0.35 0 -0.50 0.35 -0.30 0.75 0.15 0.40 0.05 0.75 -0.25 0.75 -0.30 0 -0.40 0.45 -0.20 0.95 0.15 0.50 0 1.25 -0.40 1.65 -0.35 0.35 -0.60 0.95 -0.45 1.30 0.10 0.30 -0.05 0.60 -0.35 0.60 -0.30 0 -0.40 0.35 -0.25 0.75 0.20 0.40 0.05 0.75 -0.30 0.75 -0.30 0 -0.40 0.25 -0.25 0.50 0.15 0.30 0.10 0.50 -0.20 0.50 -0.30 0 -0.40 0.30 -0.25 0.70 0.15 0.35 -0.05 1 -0.45 1.35 -0.35 0.40 -0.60 0.95 -0.50 1.25 0.10 0.35 -0.10 0.90 -0.45 1.25 -0.85 0.90 -0.80 2.60 0.10 3.70 1 1.20 5.60 3.80 6.50 3.60 0.40 -0.05 1.10 -0.90 1.55 -1.85z m-58.20 -12.10 c0.30 -0.90 1.30 -4 2.15 -6.90 0.90 -2.90 2.25 -7.15 3 -9.50 2.50 -7.35 5 -18.15 4.40 -18.75 -0.15 -0.15 -2.40 -0.50 -4.95 -0.80 -2.60 -0.30 -6.60 -0.70 -8.95 -1 -2.35 -0.25 -6.15 -0.70 -8.50 -0.95 -8.15 -0.95 -11.75 -1.45 -12.60 -1.75 -0.60 -0.25 -0.90 -0.10 -0.90 0.40 0 1.05 8.50 15.05 19.15 31.50 2.65 4.05 4.95 7.80 5.10 8.35 0.50 1.50 1.50 1.20 2.10 -0.60z m-155.45 -18.10 c48.30 -24.15 50.75 -25.45 50.95 -26.10 0.10 -0.30 -0.35 -1.25 -1.05 -2.05 -1.10 -1.30 -1.65 -1.50 -6.40 -2.05 -2.80 -0.35 -6.70 -0.85 -8.65 -1.10 -5.50 -0.75 -11.10 -1.45 -16 -2 -2.45 -0.30 -6.25 -0.75 -8.35 -1 -2.15 -0.30 -5.70 -0.70 -7.90 -1 -2.20 -0.25 -5.80 -0.70 -8 -1 -2.20 -0.25 -5.80 -0.70 -8 -1 -2.20 -0.25 -5.80 -0.70 -8 -1 -2.20 -0.25 -5.85 -0.75 -8.10 -1 -2.30 -0.30 -5.80 -0.80 -7.80 -1.10 -2.65 -0.40 -3.80 -0.40 -4.20 0 -0.80 0.80 -1.35 7.65 -1.35 17.40 -0.05 11.85 0.85 21 3.30 34.20 1.25 6.65 1.45 7.50 1.95 7.50 0.15 0 17.05 -8.40 37.60 -18.70z m88.30 -13.20 c0.10 -0.20 -0.55 -1.60 -1.45 -3.10 -3.90 -6.35 -5.75 -15.70 -4.15 -21.05 1.30 -4.50 6.60 -8.20 14.35 -10.25 2.35 -0.60 4.50 -1.45 4.85 -1.90 0.30 -0.45 0.75 -2 0.90 -3.45 0.20 -1.40 0.55 -3.40 0.80 -4.35 0.25 -0.95 0.80 -3.55 1.20 -5.75 0.45 -2.20 1.90 -9.50 3.30 -16.25 7.85 -38.40 17.60 -88.05 20 -102 0.60 -3.45 1.30 -7.35 1.55 -8.75 1.75 -8.95 5 -28.60 5.25 -31.50 0.65 -7.45 -2.05 -14.15 -7.85 -19.35 -3.60 -3.25 -3.60 -3.25 -2.50 -10.70 1 -6.95 5.80 -40.35 7.10 -49.60 0.30 -2.25 0.45 -4.40 0.30 -4.75 -0.15 -0.45 -1.50 -0.55 -5.25 -0.35 -2.75 0.15 -5.15 0.40 -5.25 0.50 -0.15 0.15 -0.85 3.65 -1.55 7.75 -1.95 11.65 -3.20 18.75 -5.10 28.75 -0.95 5.10 -2.15 11.85 -2.75 15 -0.55 3.15 -1.10 6.20 -1.20 6.80 -0.15 0.70 -1.35 1.50 -4.10 2.70 -4.50 2 -7.40 4.60 -9.05 8.20 -1.45 3.05 -1.20 3.80 1.35 3.80 2.70 0 10.70 1.70 14.15 2.95 3.35 1.30 5.70 3.70 6.20 6.35 0.40 2.20 -0.05 10.25 -0.80 14.75 -0.30 1.75 -1.10 6.60 -1.75 10.70 -1.25 7.85 -3.10 18.90 -5.75 34 -3.40 19.40 -3.80 21.85 -6.30 35 -1.25 6.60 -2.80 15.05 -3.50 18.75 -0.70 3.70 -1.65 8.90 -2.20 11.50 -0.50 2.60 -1.65 8.45 -2.50 13 -0.85 4.55 -2.25 11.75 -3.05 16 -0.80 4.25 -1.70 9 -2 10.50 -0.25 1.50 -0.60 3.25 -0.70 3.80 -0.20 0.80 -1.15 1.40 -4.10 2.45 -4.75 1.70 -8.25 3.85 -11.05 6.95 -2.55 2.80 -3.90 5.55 -4.85 10.20 -1.65 7.85 2.45 17.05 9.70 21.70 1.75 1.10 2.85 1.40 4.85 1.40 1.45 0 2.75 -0.20 2.90 -0.40z m80.25 -18.70 c0.30 -1.20 1 -4.15 1.55 -6.65 0.55 -2.45 1.25 -5.30 1.50 -6.25 0.25 -0.95 0.65 -2.75 0.95 -4 0.30 -1.25 0.85 -3.80 1.30 -5.75 0.45 -1.90 1.15 -4.95 1.55 -6.75 0.40 -1.80 1 -4.20 1.30 -5.40 0.30 -1.15 0.40 -2.25 0.25 -2.40 -0.10 -0.15 -1.90 0.50 -3.90 1.50 -5.50 2.55 -17.90 8.30 -20.20 9.30 -1.10 0.50 -4.65 2.15 -7.90 3.70 -3.25 1.55 -6 2.80 -6.05 2.80 -0.20 0 -14 6.55 -17.80 8.40 -1.50 0.75 -2.70 1.60 -2.65 1.85 0.05 0.30 0.50 1.70 1 3.15 1.05 3.05 1.20 3.10 9.40 4.05 2.75 0.35 6.60 0.80 8.50 1.05 1.95 0.25 5.75 0.70 8.50 1 5.90 0.65 11.35 1.30 15.50 1.95 1.65 0.20 3.80 0.45 4.80 0.50 1.75 0.05 1.85 -0.05 2.40 -2.05z m-116.75 -12.95 c1.25 -1.10 2.30 -2.35 2.30 -2.70 0 -0.35 -3 -2.85 -6.60 -5.55 -3.65 -2.70 -10.65 -7.85 -15.50 -11.40 -26.75 -19.75 -34.95 -25.80 -44.80 -33.15 -8.25 -6.15 -11 -7.95 -11.45 -7.50 -1.35 1.40 -9 21 -10.70 27.60 -1.95 7.65 -2.90 11.40 -3.35 13.75 -0.30 1.50 -0.90 4.30 -1.30 6.25 -0.40 1.90 -0.60 3.65 -0.40 3.85 0.20 0.20 2.40 0.60 4.85 0.90 2.50 0.30 6.40 0.75 8.75 1.05 2.35 0.30 5.95 0.70 8 0.95 2.05 0.25 6.45 0.80 9.75 1.20 3.30 0.45 8.05 1 10.50 1.30 2.50 0.30 5.95 0.75 7.75 1 1.80 0.25 5.30 0.70 7.75 1 2.50 0.30 6.20 0.75 8.25 1 2.05 0.25 5.90 0.70 8.50 1 2.60 0.35 5.90 0.75 7.25 1 1.40 0.20 3.75 0.40 5.30 0.45 2.60 0.05 2.95 -0.10 5.15 -2z m73.60 -15.15 c4.35 -2 9.95 -4.60 12.35 -5.75 2.45 -1.10 4.50 -2.05 4.60 -2.05 0.05 0 2.70 -1.20 5.80 -2.70 3.15 -1.45 7.05 -3.30 8.70 -4.05 1.65 -0.75 4.25 -1.95 5.75 -2.65 1.50 -0.70 6.15 -2.80 10.25 -4.65 4.15 -1.90 7.75 -3.80 8.10 -4.30 0.35 -0.50 1.05 -3.15 1.65 -5.90 2.05 -10.15 2.55 -12.55 3 -14.50 2.30 -9.65 2.25 -8.60 0.50 -13 -2.50 -6.35 -7.60 -15.40 -12.50 -22.15 -2.25 -3.10 -3.15 -3.70 -3.65 -2.40 -0.15 0.35 -2.50 3.65 -5.20 7.35 -2.70 3.70 -6.60 9 -8.65 11.80 -2.05 2.80 -5.55 7.60 -7.75 10.65 -2.20 3.05 -4.70 6.45 -5.55 7.65 -5.70 7.75 -12.45 16.90 -15.85 21.60 -2.20 3.05 -4.60 6.30 -5.35 7.25 -1.25 1.70 -1.85 3.60 -3 9.50 -1.60 8.55 -2 10.45 -2.30 11.20 -0.55 1.40 0.85 0.95 9.10 -2.90z m-52.25 -0.45 c3.35 -2.25 2.85 -3.45 -10.20 -24.35 -14.90 -23.85 -25.55 -39 -32.55 -46.35 -2.30 -2.45 -3.10 -3 -3.65 -2.60 -0.85 0.75 -0.85 4.55 0.10 6.75 1 2.45 5.85 10.45 16.55 27.35 16.70 26.40 26.10 40.35 27.15 40.35 0.50 0 1.65 -0.50 2.60 -1.15z m-30.25 -14.50 c-1.40 -1.85 -3 -4.40 -12.20 -19.60 -8.20 -13.60 -15.65 -26.05 -17.55 -29.35 -0.90 -1.60 -1.95 -2.90 -2.35 -2.90 -0.40 0 -2.35 0.40 -4.35 0.90 -1.95 0.55 -4.70 1.20 -6.10 1.50 -1.35 0.30 -4.45 1 -6.85 1.55 -2.35 0.60 -5.35 1.05 -6.60 1.05 -1.95 0 -2.40 0.20 -3.50 1.65 -1.65 2.15 -1.60 2.55 0.10 3.65 0.75 0.45 3.40 2.35 5.85 4.20 2.50 1.85 11.60 8.45 20.25 14.75 18 13.05 30.60 22.40 32.40 24.10 1.90 1.75 2.50 0.65 0.90 -1.50z m40.85 -13.95 c3 -10.15 8.80 -36.90 12.80 -58.90 2.65 -14.35 5.55 -33.10 5.55 -35.55 0 -1.70 -0.90 -1.95 -8 -2.10 -4.75 -0.10 -4.75 -0.10 -4.85 1.65 -0.40 6.05 -1.20 19 -1.65 26.25 -0.95 15.80 -2.35 33 -5.50 66.75 -0.60 6 -0.60 6.50 -0.10 6.50 0.20 0 1 -2.10 1.75 -4.60z m-13.65 -15.65 c0 -2.60 0.20 -6.90 0.45 -9.60 0.25 -2.70 0.75 -8.15 1.05 -12.15 0.30 -4 0.75 -9.85 1 -13 0.25 -3.15 0.75 -8.65 1.05 -12.25 0.50 -6.50 1.55 -14.85 2.45 -20.50 0.90 -5.70 1.55 -12.90 1.10 -13.35 -0.35 -0.35 -4 0.05 -7.95 0.90 -1.05 0.20 -1.10 0.35 -1.05 8.10 0.05 6.65 -0.10 8.30 -0.95 10.70 -3.15 9 -10.75 16.30 -22.85 21.95 -1.80 0.85 -3.40 1.75 -3.55 2 -0.20 0.25 1.75 3.05 4.20 6.20 4.50 5.70 14.75 20.85 19.30 28.50 4.20 7 4.80 7.80 5.25 7.50 0.30 -0.15 0.50 -2.40 0.50 -5z m58.05 -4.35 c0.75 -1.50 12.50 -17.55 30.85 -42.10 3.30 -4.45 3.30 -4.45 0.10 -7.40 -7.40 -6.75 -18.35 -14.60 -19.95 -14.30 -0.45 0.10 -0.85 0.70 -0.90 1.40 -0.20 1.90 -1.75 12.05 -2.65 17.50 -1.10 6.45 -2.70 15.25 -3.95 21.50 -0.30 1.50 -1.10 5.55 -1.80 9 -1.30 6.60 -2.85 13.15 -3.50 14.65 -0.55 1.30 1.10 1.10 1.80 -0.25z m-124.80 -29.20 c1.65 -0.60 5.80 -2.15 9.25 -3.45 3.45 -1.30 7.85 -2.90 9.75 -3.60 6.70 -2.45 23.10 -11.90 29.35 -17 2.50 -2.05 3.75 -3.50 4.90 -5.75 1.35 -2.75 1.50 -3.55 1.50 -7.75 0 -5.50 -0.20 -5.70 -4.15 -4.40 -10.60 3.40 -25.85 11.90 -35.85 19.90 -8.80 7.10 -23.40 21.85 -22.70 22.95 0.50 0.75 4.75 0.25 7.95 -0.90z m189.75 -23.40 c0 -0.40 -2.65 -4.15 -5.85 -8.40 -8.80 -11.50 -18.35 -20.70 -30.65 -29.40 -7.20 -5.15 -9.75 -6.25 -9.15 -4 0.15 0.60 0 1 -0.35 1 -0.40 0 -0.50 0.45 -0.30 1.25 0.20 0.70 0.10 1.25 -0.20 1.25 -1 0 -0.50 1.60 0.90 2.80 0.75 0.65 4.40 3.10 8.10 5.50 12.25 7.85 22.70 16.30 32.50 26.30 4.40 4.45 5 4.90 5 3.70z m8 -23.90 c0 -1.15 0.20 -3.45 0.45 -5.10 0.30 -1.70 0.75 -4.85 1.05 -7.05 2.70 -19.55 7.30 -32.15 18 -49.25 4.70 -7.45 8.15 -14.60 9 -18.60 0.80 -3.55 1 -3.05 -9.35 -24.40 -2.35 -4.80 -5.35 -11.45 -6.70 -14.75 -1.85 -4.60 -2.65 -6 -3.30 -5.95 -0.50 0.05 -3.50 0.45 -6.65 0.85 -7.90 1.05 -21.80 1.80 -40.30 2.10 -8.55 0.10 -15.95 0.35 -16.40 0.55 -0.50 0.20 -0.80 0.90 -0.80 1.80 0 0.80 -0.20 2.40 -0.45 3.55 -0.25 1.15 -0.75 4.45 -1.05 7.35 -0.30 2.90 -0.75 7.15 -1 9.50 -0.25 2.35 -0.70 6.75 -1 9.75 -0.60 6.55 -1.40 12.65 -2 15.75 -0.25 1.25 -0.70 4 -1.05 6.10 -0.60 3.85 -0.60 3.85 1.95 7 2.85 3.45 5.05 7.30 6.35 11.15 1.20 3.55 2.25 8.65 2.25 11.05 0 1.90 0.15 2.10 2.40 3.35 11.75 6.40 27.35 18.20 41.80 31.70 3.35 3.10 6.20 5.65 6.45 5.65 0.20 0 0.35 -0.95 0.35 -2.10z m-162.25 -40.45 c4.50 -1.70 15.95 -4.95 17.55 -4.95 0.60 0 1.20 -0.30 1.35 -0.65 0.15 -0.35 -4.05 -7.05 -9.35 -14.90 -12.25 -18.25 -14.25 -21.05 -19.70 -27.60 -5.70 -6.80 -25.75 -27.85 -31.35 -32.85 -2.30 -2.05 -4.20 -4.05 -4.20 -4.40 -0.05 -0.75 0.90 -1.20 11.70 -5.20 24.60 -9.15 36.75 -15.15 51.65 -25.65 9.90 -6.90 27.55 -21.70 27.60 -23.10 0 -0.35 -0.65 -0.95 -1.50 -1.40 -0.80 -0.40 -3.45 -2.15 -5.85 -3.85 -14.65 -10.20 -25.05 -22 -37.10 -41.90 -2.20 -3.70 -4.75 -7.55 -5.55 -8.50 -1.55 -1.75 -1.55 -1.75 -3.65 -0.55 -4.30 2.45 -12.35 9.50 -16.65 14.55 -0.80 0.95 -3.25 3.80 -5.45 6.30 -15.10 17.15 -38.05 48.10 -53.95 72.65 -7.75 12 -10.90 19.90 -10.95 27.80 -0.05 6.80 4.60 15.20 12.80 23.10 8.55 8.25 30.35 24.35 48.10 35.45 13.10 8.20 28.90 17.20 30.25 17.20 0.15 0 2.05 -0.70 4.25 -1.55z m43.15 -9.45 c0.70 -6.65 4.80 -13.75 10.05 -17.40 1.65 -1.15 3.85 -3.10 4.95 -4.35 1.75 -2 2 -2.60 2.55 -6.60 0.35 -2.40 1.05 -6.85 1.55 -9.90 0.50 -3 1.15 -7.30 1.45 -9.50 0.35 -2.20 0.80 -5.25 1.05 -6.75 0.25 -1.50 0.70 -4.45 1.05 -6.50 0.30 -2.05 0.75 -4.80 1.05 -6.10 0.25 -1.30 0.35 -2.60 0.15 -2.90 -0.15 -0.25 -2 -0.50 -4.15 -0.50 -2.10 0 -9.90 -0.25 -17.35 -0.55 -12.20 -0.55 -13.80 -0.70 -16.75 -1.80 -6.90 -2.55 -10.15 -5.75 -10.85 -10.65 -0.35 -2.30 -0.60 -2.80 -1.50 -2.90 -1.35 -0.20 -4.70 0.90 -9.15 3.10 -2.20 1.05 -3.55 1.45 -3.70 1.10 -0.10 -0.30 -0.70 0.05 -1.40 0.80 -1.10 1.35 -13.55 7.80 -18.55 9.65 -1.35 0.50 -2.55 1.20 -2.70 1.55 -0.10 0.35 2 2.95 4.70 5.80 19.75 20.60 34.85 40.10 45.20 58.25 4.90 8.60 3.90 7.70 8.35 7.55 3.70 -0.15 3.85 -0.20 4 -1.40z m3.10 -85.55 c1.25 -0.25 3.70 -0.50 5.50 -0.65 1.80 -0.10 5.75 -0.55 8.75 -1 3.05 -0.40 6.30 -0.90 7.25 -1 0.95 -0.15 4.70 -0.70 8.25 -1.25 3.60 -0.55 7.50 -1.15 8.75 -1.30 7.30 -1.05 20.95 -3.35 23.85 -4.05 8.15 -1.90 14.65 -5.50 14.65 -8.15 0 -3.65 -3.30 -6.55 -8.70 -7.50 -8.85 -1.60 -30.05 0.20 -47.30 4.05 -14 3.10 -26.30 7.30 -29.15 9.95 -0.60 0.50 -1.20 0.95 -1.40 0.95 -0.55 0 -3.85 3.45 -3.55 3.75 0.15 0.15 0 0.25 -0.30 0.25 -0.30 0 -0.45 0.35 -0.30 0.75 0.20 0.40 0.05 0.75 -0.20 0.75 -0.70 0 -0.35 3.35 0.45 4.30 0.50 0.60 1.70 0.75 5.90 0.65 2.90 -0.05 6.30 -0.25 7.55 -0.50z m-293.40 -168 c3.50 -1.15 7.45 -3.20 20.35 -10.60 10.05 -5.75 32 -16.70 36.05 -18 2.75 -0.90 9.55 -1.80 21.50 -2.85 22.60 -1.95 43.35 -4.80 60.75 -8.25 12.25 -2.45 16.65 -4 30.80 -11 10.45 -5.15 13.40 -6.25 21.95 -8.45 11.10 -2.80 19.45 -6.85 24.75 -12.05 5.40 -5.25 7.25 -9.90 7.25 -18 0 -5.45 -0.65 -7.95 -2.50 -9.85 -2.75 -2.70 -8.20 -1.85 -25.75 4.10 -31.55 10.75 -39.80 13.30 -65.75 20.30 -38.90 10.50 -55.60 16.70 -79.25 29.40 -9.45 5.05 -19.15 8.85 -30.95 12 -10.15 2.70 -9.85 2.70 -51.50 3 -21.45 0.15 -39.10 0.45 -39.25 0.60 -0.40 0.40 0.95 1.15 3.75 1.95 1.90 0.60 6.60 0.90 17.50 1.20 13.60 0.35 15.20 0.50 17.60 1.50 4.35 1.75 30.60 15.10 30.60 15.55 0 0.25 -0.85 0.70 -1.85 1.05 -3.60 1.15 -6.55 2.95 -9.60 5.75 -1.70 1.55 -3.05 3 -3.05 3.20 0 1.35 12.10 0.95 16.60 -0.55z"/>
  <path d="M540 120.30 c-6.45 -1.80 -11.05 -5.65 -13.90 -11.70 -1.75 -3.65 -1.85 -4.10 -1.85 -8.85 0 -4.40 0.15 -5.35 1.35 -7.85 2.80 -6 8.45 -10.15 15.55 -11.45 4.40 -0.80 8.85 0 13.50 2.40 4.05 2.15 6.90 5.20 9.05 9.65 1.40 2.95 1.55 3.70 1.55 8.25 0 4.40 -0.15 5.35 -1.35 7.85 -1.85 4 -3.65 6.10 -7.40 8.65 -5.05 3.45 -11.05 4.55 -16.50 3.05z"/>
 </g>
</svg>